solid OpenSCAD_Model
  facet normal -1 0 0
    outer loop
      vertex 0 10 0
      vertex 0 5 15.2224
      vertex 0 10 20
    endloop
  endfacet
  facet normal -1 0 0
    outer loop
      vertex 0 0 0
      vertex 0 5 15.2224
      vertex 0 10 0
    endloop
  endfacet
  facet normal -1 -0 0
    outer loop
      vertex 0 5 15.2224
      vertex 0 0 0
      vertex 0 0 15.2224
    endloop
  endfacet
  facet normal -1 -0 0
    outer loop
      vertex 0 10 20
      vertex 0 5 15.2224
      vertex 0 5 20
    endloop
  endfacet
  facet normal 0 0 1
    outer loop
      vertex 17 10 20
      vertex 16.5 9.5 20
      vertex 17 0 20
    endloop
  endfacet
  facet normal 0 0 1
    outer loop
      vertex 17 10 20
      vertex 0.5 9.5 20
      vertex 16.5 9.5 20
    endloop
  endfacet
  facet normal -0 0 1
    outer loop
      vertex 0 10 20
      vertex 0.5 9.5 20
      vertex 17 10 20
    endloop
  endfacet
  facet normal 0 0 1
    outer loop
      vertex 0 5 20
      vertex 0.5 9.5 20
      vertex 0 10 20
    endloop
  endfacet
  facet normal 0 0 1
    outer loop
      vertex 0.5 9.5 20
      vertex 0 5 20
      vertex 0.5 4.5 20
    endloop
  endfacet
  facet normal 0 0 1
    outer loop
      vertex 0 5 20
      vertex -2.46966 4.5 20
      vertex 0.5 4.5 20
    endloop
  endfacet
  facet normal 0 0 1
    outer loop
      vertex -2.46966 4.5 20
      vertex -2.75833 5 20
      vertex -2.46966 0.5 20
    endloop
  endfacet
  facet normal -0 0 1
    outer loop
      vertex -2.75833 5 20
      vertex -2.46966 4.5 20
      vertex 0 5 20
    endloop
  endfacet
  facet normal -0 0 1
    outer loop
      vertex 16.5 0.5 20
      vertex 17 0 20
      vertex 16.5 9.5 20
    endloop
  endfacet
  facet normal 0 0 1
    outer loop
      vertex -2.75833 0 20
      vertex 16.5 0.5 20
      vertex -2.46966 0.5 20
    endloop
  endfacet
  facet normal 0 0 1
    outer loop
      vertex 16.5 0.5 20
      vertex -2.75833 0 20
      vertex 17 0 20
    endloop
  endfacet
  facet normal 0 0 1
    outer loop
      vertex -2.75833 0 20
      vertex -2.46966 0.5 20
      vertex -2.75833 5 20
    endloop
  endfacet
  facet normal 1 -0 0
    outer loop
      vertex 17 0 20
      vertex 17 10 0
      vertex 17 10 20
    endloop
  endfacet
  facet normal 1 0 0
    outer loop
      vertex 17 10 0
      vertex 17 0 20
      vertex 17 0 0
    endloop
  endfacet
  facet normal 0 1 -0
    outer loop
      vertex 17 10 0
      vertex 0 10 20
      vertex 17 10 20
    endloop
  endfacet
  facet normal 0 1 0
    outer loop
      vertex 0 10 20
      vertex 17 10 0
      vertex 0 10 0
    endloop
  endfacet
  facet normal 0 0 -1
    outer loop
      vertex 0 0 0
      vertex 17 10 0
      vertex 17 0 0
    endloop
  endfacet
  facet normal -0 0 -1
    outer loop
      vertex 17 10 0
      vertex 0 0 0
      vertex 0 10 0
    endloop
  endfacet
  facet normal 0 -1 0
    outer loop
      vertex 0 0 15.2224
      vertex 17 0 20
      vertex -2.75833 0 20
    endloop
  endfacet
  facet normal 0 -1 0
    outer loop
      vertex 17 0 0
      vertex 0 0 15.2224
      vertex 0 0 0
    endloop
  endfacet
  facet normal 0 -1 0
    outer loop
      vertex 0 0 15.2224
      vertex 17 0 0
      vertex 17 0 20
    endloop
  endfacet
  facet normal -0.866025 0 -0.5
    outer loop
      vertex 0 0 15.2224
      vertex -2.75833 5 20
      vertex 0 5 15.2224
    endloop
  endfacet
  facet normal -0.866025 -0 -0.5
    outer loop
      vertex -2.75833 5 20
      vertex 0 0 15.2224
      vertex -2.75833 0 20
    endloop
  endfacet
  facet normal 0 1 -0
    outer loop
      vertex 0 5 15.2224
      vertex -2.75833 5 20
      vertex 0 5 20
    endloop
  endfacet
  facet normal 1 0 0
    outer loop
      vertex 0.5 9.5 20
      vertex 0.5 5.5 14
      vertex 0.5 9.5 1
    endloop
  endfacet
  facet normal 1 0 0
    outer loop
      vertex 0.5 4.5 14.8564
      vertex 0.5 9.5 20
      vertex 0.5 4.5 20
    endloop
  endfacet
  facet normal 1 0 0
    outer loop
      vertex 0.5 9.5 20
      vertex 0.5 4.5 14.8564
      vertex 0.5 5.5 14
    endloop
  endfacet
  facet normal 1 0 0
    outer loop
      vertex 0.5 4.5 14.8564
      vertex 0.5 4.5 14
      vertex 0.5 5.5 14
    endloop
  endfacet
  facet normal 1 -0 0
    outer loop
      vertex 0.5 0.5 14.8564
      vertex 0.5 4.5 14
      vertex 0.5 4.5 14.8564
    endloop
  endfacet
  facet normal 1 0 0
    outer loop
      vertex 0.5 0.5 1
      vertex 0.5 4.5 14
      vertex 0.5 0.5 14.8564
    endloop
  endfacet
  facet normal 1 0 0
    outer loop
      vertex 0.5 4.5 14
      vertex 0.5 0.5 1
      vertex 0.5 4.5 1
    endloop
  endfacet
  facet normal 1 0 0
    outer loop
      vertex 0.5 9.5 1
      vertex 0.5 5.5 14
      vertex 0.5 5.5 1
    endloop
  endfacet
  facet normal -1 0 0
    outer loop
      vertex 16.5 4.5 1
      vertex 16.5 0.5 1
      vertex 16.5 4.5 14
    endloop
  endfacet
  facet normal -1 0 0
    outer loop
      vertex 16.5 5.5 14
      vertex 16.5 9.5 1
      vertex 16.5 5.5 1
    endloop
  endfacet
  facet normal -1 0 0
    outer loop
      vertex 16.5 9.5 1
      vertex 16.5 5.5 14
      vertex 16.5 9.5 20
    endloop
  endfacet
  facet normal -1 0 0
    outer loop
      vertex 16.5 4.5 14
      vertex 16.5 9.5 20
      vertex 16.5 5.5 14
    endloop
  endfacet
  facet normal -1 0 0
    outer loop
      vertex 16.5 4.5 14
      vertex 16.5 0.5 20
      vertex 16.5 9.5 20
    endloop
  endfacet
  facet normal -1 0 0
    outer loop
      vertex 16.5 0.5 20
      vertex 16.5 4.5 14
      vertex 16.5 0.5 1
    endloop
  endfacet
  facet normal 0 -1 0
    outer loop
      vertex 6.66667 9.5 1
      vertex 11.3333 9.5 15
      vertex 6.66667 9.5 15
    endloop
  endfacet
  facet normal 0 -1 -0
    outer loop
      vertex 11.3333 9.5 15
      vertex 6.66667 9.5 1
      vertex 11.3333 9.5 1
    endloop
  endfacet
  facet normal 0 -1 0
    outer loop
      vertex 6.66667 9.5 15
      vertex 0.5 9.5 20
      vertex 5.66667 9.5 15
    endloop
  endfacet
  facet normal 0 -1 0
    outer loop
      vertex 0.5 9.5 1
      vertex 5.66667 9.5 15
      vertex 0.5 9.5 20
    endloop
  endfacet
  facet normal 0 -1 -0
    outer loop
      vertex 5.66667 9.5 15
      vertex 0.5 9.5 1
      vertex 5.66667 9.5 1
    endloop
  endfacet
  facet normal 0 -1 0
    outer loop
      vertex 0.5 9.5 20
      vertex 6.66667 9.5 15
      vertex 16.5 9.5 20
    endloop
  endfacet
  facet normal 0 -1 0
    outer loop
      vertex 11.3333 9.5 15
      vertex 16.5 9.5 20
      vertex 6.66667 9.5 15
    endloop
  endfacet
  facet normal 0 -1 0
    outer loop
      vertex 12.3333 9.5 15
      vertex 16.5 9.5 20
      vertex 11.3333 9.5 15
    endloop
  endfacet
  facet normal 0 -1 0
    outer loop
      vertex 16.5 9.5 1
      vertex 12.3333 9.5 15
      vertex 12.3333 9.5 1
    endloop
  endfacet
  facet normal 0 -1 0
    outer loop
      vertex 12.3333 9.5 15
      vertex 16.5 9.5 1
      vertex 16.5 9.5 20
    endloop
  endfacet
  facet normal 0 0 1
    outer loop
      vertex 5.66667 9.5 1
      vertex 1 5.5 1
      vertex 5.66667 0.5 1
    endloop
  endfacet
  facet normal -0 0 1
    outer loop
      vertex 0.5 9.5 1
      vertex 1 5.5 1
      vertex 5.66667 9.5 1
    endloop
  endfacet
  facet normal 0 0 1
    outer loop
      vertex 1 5.5 1
      vertex 0.5 9.5 1
      vertex 0.5 5.5 1
    endloop
  endfacet
  facet normal -0 0 1
    outer loop
      vertex 1 4.5 1
      vertex 5.66667 0.5 1
      vertex 1 5.5 1
    endloop
  endfacet
  facet normal 0 0 1
    outer loop
      vertex 0.5 0.5 1
      vertex 1 4.5 1
      vertex 0.5 4.5 1
    endloop
  endfacet
  facet normal 0 0 1
    outer loop
      vertex 1 4.5 1
      vertex 0.5 0.5 1
      vertex 5.66667 0.5 1
    endloop
  endfacet
  facet normal 0 0 1
    outer loop
      vertex 16.5 9.5 1
      vertex 16 5.5 1
      vertex 16.5 5.5 1
    endloop
  endfacet
  facet normal 0 0 1
    outer loop
      vertex 16 5.5 1
      vertex 12.3333 9.5 1
      vertex 16 4.5 1
    endloop
  endfacet
  facet normal -0 0 1
    outer loop
      vertex 12.3333 9.5 1
      vertex 16 5.5 1
      vertex 16.5 9.5 1
    endloop
  endfacet
  facet normal -0 0 1
    outer loop
      vertex 16 4.5 1
      vertex 16.5 0.5 1
      vertex 16.5 4.5 1
    endloop
  endfacet
  facet normal 0 0 1
    outer loop
      vertex 12.3333 0.5 1
      vertex 16 4.5 1
      vertex 12.3333 9.5 1
    endloop
  endfacet
  facet normal 0 0 1
    outer loop
      vertex 16 4.5 1
      vertex 12.3333 0.5 1
      vertex 16.5 0.5 1
    endloop
  endfacet
  facet normal -0 0 1
    outer loop
      vertex 6.66667 9.5 1
      vertex 11.3333 0.5 1
      vertex 11.3333 9.5 1
    endloop
  endfacet
  facet normal 0 0 1
    outer loop
      vertex 11.3333 0.5 1
      vertex 6.66667 9.5 1
      vertex 6.66667 0.5 1
    endloop
  endfacet
  facet normal 0 1 -0
    outer loop
      vertex 11.3333 0.5 1
      vertex 6.66667 0.5 15
      vertex 11.3333 0.5 15
    endloop
  endfacet
  facet normal 0 1 0
    outer loop
      vertex 6.66667 0.5 15
      vertex 11.3333 0.5 1
      vertex 6.66667 0.5 1
    endloop
  endfacet
  facet normal 0 1 0
    outer loop
      vertex 11.3333 0.5 15
      vertex 16.5 0.5 20
      vertex 12.3333 0.5 15
    endloop
  endfacet
  facet normal 0 1 -0
    outer loop
      vertex 16.5 0.5 1
      vertex 12.3333 0.5 15
      vertex 16.5 0.5 20
    endloop
  endfacet
  facet normal 0 1 0
    outer loop
      vertex 12.3333 0.5 15
      vertex 16.5 0.5 1
      vertex 12.3333 0.5 1
    endloop
  endfacet
  facet normal 0 1 0
    outer loop
      vertex 6.66667 0.5 15
      vertex 16.5 0.5 20
      vertex 11.3333 0.5 15
    endloop
  endfacet
  facet normal 0 1 0
    outer loop
      vertex 16.5 0.5 20
      vertex 6.66667 0.5 15
      vertex -2.46966 0.5 20
    endloop
  endfacet
  facet normal 0 1 -0
    outer loop
      vertex 5.66667 0.5 15
      vertex -2.46966 0.5 20
      vertex 6.66667 0.5 15
    endloop
  endfacet
  facet normal 0 1 0
    outer loop
      vertex 5.66667 0.5 15
      vertex 0.5 0.5 14.8564
      vertex -2.46966 0.5 20
    endloop
  endfacet
  facet normal 0 1 -0
    outer loop
      vertex 5.66667 0.5 1
      vertex 0.5 0.5 14.8564
      vertex 5.66667 0.5 15
    endloop
  endfacet
  facet normal 0 1 0
    outer loop
      vertex 0.5 0.5 14.8564
      vertex 5.66667 0.5 1
      vertex 0.5 0.5 1
    endloop
  endfacet
  facet normal 0.866025 -0 0.5
    outer loop
      vertex -2.46966 0.5 20
      vertex 0.5 4.5 14.8564
      vertex -2.46966 4.5 20
    endloop
  endfacet
  facet normal 0.866025 0 0.5
    outer loop
      vertex 0.5 4.5 14.8564
      vertex -2.46966 0.5 20
      vertex 0.5 0.5 14.8564
    endloop
  endfacet
  facet normal 0 -1 0
    outer loop
      vertex 0.5 4.5 14.8564
      vertex 0.5 4.5 20
      vertex -2.46966 4.5 20
    endloop
  endfacet
  facet normal -1 0 0
    outer loop
      vertex 16 4.5 1
      vertex 16 5.5 14
      vertex 16 5.5 1
    endloop
  endfacet
  facet normal -1 -0 0
    outer loop
      vertex 16 5.5 14
      vertex 16 4.5 1
      vertex 16 4.5 14
    endloop
  endfacet
  facet normal -0 0 1
    outer loop
      vertex 16 5.5 14
      vertex 16.5 4.5 14
      vertex 16.5 5.5 14
    endloop
  endfacet
  facet normal 0 0 1
    outer loop
      vertex 16.5 4.5 14
      vertex 16 5.5 14
      vertex 16 4.5 14
    endloop
  endfacet
  facet normal 0 -1 0
    outer loop
      vertex 16 4.5 1
      vertex 16.5 4.5 14
      vertex 16 4.5 14
    endloop
  endfacet
  facet normal 0 -1 -0
    outer loop
      vertex 16.5 4.5 14
      vertex 16 4.5 1
      vertex 16.5 4.5 1
    endloop
  endfacet
  facet normal 0 1 -0
    outer loop
      vertex 16.5 5.5 1
      vertex 16 5.5 14
      vertex 16.5 5.5 14
    endloop
  endfacet
  facet normal 0 1 0
    outer loop
      vertex 16 5.5 14
      vertex 16.5 5.5 1
      vertex 16 5.5 1
    endloop
  endfacet
  facet normal -0 0 1
    outer loop
      vertex 0.5 5.5 14
      vertex 1 4.5 14
      vertex 1 5.5 14
    endloop
  endfacet
  facet normal 0 0 1
    outer loop
      vertex 1 4.5 14
      vertex 0.5 5.5 14
      vertex 0.5 4.5 14
    endloop
  endfacet
  facet normal 1 -0 0
    outer loop
      vertex 1 4.5 14
      vertex 1 5.5 1
      vertex 1 5.5 14
    endloop
  endfacet
  facet normal 1 0 0
    outer loop
      vertex 1 5.5 1
      vertex 1 4.5 14
      vertex 1 4.5 1
    endloop
  endfacet
  facet normal 0 1 -0
    outer loop
      vertex 1 5.5 1
      vertex 0.5 5.5 14
      vertex 1 5.5 14
    endloop
  endfacet
  facet normal 0 1 0
    outer loop
      vertex 0.5 5.5 14
      vertex 1 5.5 1
      vertex 0.5 5.5 1
    endloop
  endfacet
  facet normal 0 -1 0
    outer loop
      vertex 0.5 4.5 1
      vertex 1 4.5 14
      vertex 0.5 4.5 14
    endloop
  endfacet
  facet normal 0 -1 -0
    outer loop
      vertex 1 4.5 14
      vertex 0.5 4.5 1
      vertex 1 4.5 1
    endloop
  endfacet
  facet normal -1 0 0
    outer loop
      vertex 5.66667 9.5 1
      vertex 5.66667 9 2
      vertex 5.66667 9.5 15
    endloop
  endfacet
  facet normal -1 0 0
    outer loop
      vertex 5.66667 9.5 1
      vertex 5.66667 1 2
      vertex 5.66667 9 2
    endloop
  endfacet
  facet normal -1 0 0
    outer loop
      vertex 5.66667 0.5 1
      vertex 5.66667 1 2
      vertex 5.66667 9.5 1
    endloop
  endfacet
  facet normal -1 0 0
    outer loop
      vertex 5.66667 0.5 15
      vertex 5.66667 1 2
      vertex 5.66667 0.5 1
    endloop
  endfacet
  facet normal -1 0 0
    outer loop
      vertex 5.66667 1 2
      vertex 5.66667 0.5 15
      vertex 5.66667 1 15
    endloop
  endfacet
  facet normal -1 -0 0
    outer loop
      vertex 5.66667 9.5 15
      vertex 5.66667 9 2
      vertex 5.66667 9 15
    endloop
  endfacet
  facet normal -0 0 1
    outer loop
      vertex 5.66667 9 2
      vertex 6.66667 1 2
      vertex 6.66667 9 2
    endloop
  endfacet
  facet normal 0 0 1
    outer loop
      vertex 6.66667 1 2
      vertex 5.66667 9 2
      vertex 5.66667 1 2
    endloop
  endfacet
  facet normal 1 0 0
    outer loop
      vertex 6.66667 1 15
      vertex 6.66667 0.5 15
      vertex 6.66667 1 2
    endloop
  endfacet
  facet normal 1 0 0
    outer loop
      vertex 6.66667 9 2
      vertex 6.66667 9.5 15
      vertex 6.66667 9 15
    endloop
  endfacet
  facet normal 1 0 0
    outer loop
      vertex 6.66667 9.5 15
      vertex 6.66667 9 2
      vertex 6.66667 9.5 1
    endloop
  endfacet
  facet normal 1 -0 0
    outer loop
      vertex 6.66667 1 2
      vertex 6.66667 9.5 1
      vertex 6.66667 9 2
    endloop
  endfacet
  facet normal 1 0 0
    outer loop
      vertex 6.66667 1 2
      vertex 6.66667 0.5 1
      vertex 6.66667 9.5 1
    endloop
  endfacet
  facet normal 1 0 0
    outer loop
      vertex 6.66667 0.5 1
      vertex 6.66667 1 2
      vertex 6.66667 0.5 15
    endloop
  endfacet
  facet normal 0 -1 0
    outer loop
      vertex 5.66667 9 2
      vertex 6.66667 9 15
      vertex 5.66667 9 15
    endloop
  endfacet
  facet normal 0 -1 -0
    outer loop
      vertex 6.66667 9 15
      vertex 5.66667 9 2
      vertex 6.66667 9 2
    endloop
  endfacet
  facet normal 0 1 -0
    outer loop
      vertex 6.66667 1 2
      vertex 5.66667 1 15
      vertex 6.66667 1 15
    endloop
  endfacet
  facet normal 0 1 0
    outer loop
      vertex 5.66667 1 15
      vertex 6.66667 1 2
      vertex 5.66667 1 2
    endloop
  endfacet
  facet normal -1 0 0
    outer loop
      vertex 11.3333 9.5 1
      vertex 11.3333 9 2
      vertex 11.3333 9.5 15
    endloop
  endfacet
  facet normal -1 0 0
    outer loop
      vertex 11.3333 9.5 1
      vertex 11.3333 1 2
      vertex 11.3333 9 2
    endloop
  endfacet
  facet normal -1 0 0
    outer loop
      vertex 11.3333 0.5 1
      vertex 11.3333 1 2
      vertex 11.3333 9.5 1
    endloop
  endfacet
  facet normal -1 0 0
    outer loop
      vertex 11.3333 0.5 15
      vertex 11.3333 1 2
      vertex 11.3333 0.5 1
    endloop
  endfacet
  facet normal -1 0 0
    outer loop
      vertex 11.3333 1 2
      vertex 11.3333 0.5 15
      vertex 11.3333 1 15
    endloop
  endfacet
  facet normal -1 -0 0
    outer loop
      vertex 11.3333 9.5 15
      vertex 11.3333 9 2
      vertex 11.3333 9 15
    endloop
  endfacet
  facet normal -0 0 1
    outer loop
      vertex 11.3333 9 2
      vertex 12.3333 1 2
      vertex 12.3333 9 2
    endloop
  endfacet
  facet normal 0 0 1
    outer loop
      vertex 12.3333 1 2
      vertex 11.3333 9 2
      vertex 11.3333 1 2
    endloop
  endfacet
  facet normal 1 0 0
    outer loop
      vertex 12.3333 1 15
      vertex 12.3333 0.5 15
      vertex 12.3333 1 2
    endloop
  endfacet
  facet normal 1 0 0
    outer loop
      vertex 12.3333 9 2
      vertex 12.3333 9.5 15
      vertex 12.3333 9 15
    endloop
  endfacet
  facet normal 1 0 0
    outer loop
      vertex 12.3333 9.5 15
      vertex 12.3333 9 2
      vertex 12.3333 9.5 1
    endloop
  endfacet
  facet normal 1 -0 0
    outer loop
      vertex 12.3333 1 2
      vertex 12.3333 9.5 1
      vertex 12.3333 9 2
    endloop
  endfacet
  facet normal 1 0 0
    outer loop
      vertex 12.3333 1 2
      vertex 12.3333 0.5 1
      vertex 12.3333 9.5 1
    endloop
  endfacet
  facet normal 1 0 0
    outer loop
      vertex 12.3333 0.5 1
      vertex 12.3333 1 2
      vertex 12.3333 0.5 15
    endloop
  endfacet
  facet normal 0 -1 0
    outer loop
      vertex 11.3333 9 2
      vertex 12.3333 9 15
      vertex 11.3333 9 15
    endloop
  endfacet
  facet normal 0 -1 -0
    outer loop
      vertex 12.3333 9 15
      vertex 11.3333 9 2
      vertex 12.3333 9 2
    endloop
  endfacet
  facet normal 0 1 -0
    outer loop
      vertex 12.3333 1 2
      vertex 11.3333 1 15
      vertex 12.3333 1 15
    endloop
  endfacet
  facet normal 0 1 0
    outer loop
      vertex 11.3333 1 15
      vertex 12.3333 1 2
      vertex 11.3333 1 2
    endloop
  endfacet
  facet normal -0 0 1
    outer loop
      vertex 5.66667 1 15
      vertex 6.66667 0.5 15
      vertex 6.66667 1 15
    endloop
  endfacet
  facet normal 0 0 1
    outer loop
      vertex 6.66667 0.5 15
      vertex 5.66667 1 15
      vertex 5.66667 0.5 15
    endloop
  endfacet
  facet normal -0 0 1
    outer loop
      vertex 11.3333 9.5 15
      vertex 12.3333 9 15
      vertex 12.3333 9.5 15
    endloop
  endfacet
  facet normal 0 0 1
    outer loop
      vertex 12.3333 9 15
      vertex 11.3333 9.5 15
      vertex 11.3333 9 15
    endloop
  endfacet
  facet normal -0 0 1
    outer loop
      vertex 11.3333 1 15
      vertex 12.3333 0.5 15
      vertex 12.3333 1 15
    endloop
  endfacet
  facet normal 0 0 1
    outer loop
      vertex 12.3333 0.5 15
      vertex 11.3333 1 15
      vertex 11.3333 0.5 15
    endloop
  endfacet
  facet normal -0 0 1
    outer loop
      vertex 5.66667 9.5 15
      vertex 6.66667 9 15
      vertex 6.66667 9.5 15
    endloop
  endfacet
  facet normal 0 0 1
    outer loop
      vertex 6.66667 9 15
      vertex 5.66667 9.5 15
      vertex 5.66667 9 15
    endloop
  endfacet
endsolid OpenSCAD_Model
