solid OpenSCAD_Model
  facet normal 0.987688 0.156435 0
    outer loop
      vertex 7 0 2
      vertex 6.6574 2.16312 0
      vertex 6.6574 2.16312 2
    endloop
  endfacet
  facet normal 0.987688 0.156435 0
    outer loop
      vertex 6.6574 2.16312 0
      vertex 7 0 2
      vertex 7 0 0
    endloop
  endfacet
  facet normal -0.987688 0.156435 0
    outer loop
      vertex -7 0 0
      vertex -6.6574 2.16312 2
      vertex -6.6574 2.16312 0
    endloop
  endfacet
  facet normal -0.987688 0.156435 0
    outer loop
      vertex -6.6574 2.16312 2
      vertex -7 0 0
      vertex -7 0 2
    endloop
  endfacet
  facet normal 0.156435 0.987688 -0
    outer loop
      vertex 2.16312 6.6574 0
      vertex 0 7 2
      vertex 2.16312 6.6574 2
    endloop
  endfacet
  facet normal 0.156435 0.987688 0
    outer loop
      vertex 0 7 2
      vertex 2.16312 6.6574 0
      vertex 0 7 0
    endloop
  endfacet
  facet normal 0 0 -1
    outer loop
      vertex -1.25 -3.33494 0
      vertex -1.75 -3.03109 0
      vertex -1.15877 -3.29432 0
    endloop
  endfacet
  facet normal 0 0 -1
    outer loop
      vertex -1.67283 -3.64214 0
      vertex -1.75 -3.03109 0
      vertex -1.25 -3.33494 0
    endloop
  endfacet
  facet normal 0 0 -1
    outer loop
      vertex -2.02254 -4.03054 0
      vertex -1.75 -3.03109 0
      vertex -1.67283 -3.64214 0
    endloop
  endfacet
  facet normal 0 0 -1
    outer loop
      vertex -2.34196 -2.60101 0
      vertex -2.02254 -4.03054 0
      vertex -2.28386 -4.48316 0
    endloop
  endfacet
  facet normal 0 0 -1
    outer loop
      vertex -2.02254 -4.03054 0
      vertex -2.34196 -2.60101 0
      vertex -1.75 -3.03109 0
    endloop
  endfacet
  facet normal 0 0 -1
    outer loop
      vertex -2.42705 -4.73664 0
      vertex -2.28386 -4.48316 0
      vertex -2.33188 -4.63095 0
    endloop
  endfacet
  facet normal 0 0 -1
    outer loop
      vertex -5.66312 -4.1145 0
      vertex -2.28386 -4.48316 0
      vertex -2.42705 -4.73664 0
    endloop
  endfacet
  facet normal 0 0 -1
    outer loop
      vertex -4.1145 -5.66312 0
      vertex -2.42705 -4.73664 0
      vertex -2.74064 -5.27979 0
    endloop
  endfacet
  facet normal 0 0 -1
    outer loop
      vertex -2.28386 -4.48316 0
      vertex -5.66312 -4.1145 0
      vertex -2.34196 -2.60101 0
    endloop
  endfacet
  facet normal 0 0 -1
    outer loop
      vertex -4.1145 -5.66312 0
      vertex -2.74064 -5.27979 0
      vertex -2.93444 -5.87626 0
    endloop
  endfacet
  facet normal 0 0 -1
    outer loop
      vertex -4.1145 -5.66312 0
      vertex -2.93444 -5.87626 0
      vertex -2.97316 -6.24466 0
    endloop
  endfacet
  facet normal -0 0 -1
    outer loop
      vertex -2.42705 -4.73664 0
      vertex -4.1145 -5.66312 0
      vertex -5.66312 -4.1145 0
    endloop
  endfacet
  facet normal -0 0 -1
    outer loop
      vertex -2.34196 -2.60101 0
      vertex -5.66312 -4.1145 0
      vertex -2.83156 -2.05725 0
    endloop
  endfacet
  facet normal -0 0 -1
    outer loop
      vertex -2.83156 -2.05725 0
      vertex -5.66312 -4.1145 0
      vertex -3.19741 -1.42358 0
    endloop
  endfacet
  facet normal 0 0 -1
    outer loop
      vertex -6.6574 -2.16312 0
      vertex -3.19741 -1.42358 0
      vertex -5.66312 -4.1145 0
    endloop
  endfacet
  facet normal 0 0 -1
    outer loop
      vertex 3.42352 -0.727691 0
      vertex 7 0 0
      vertex 6.6574 -2.16312 0
    endloop
  endfacet
  facet normal 0 0 -1
    outer loop
      vertex 3.19741 -1.42358 0
      vertex 6.6574 -2.16312 0
      vertex 5.66312 -4.1145 0
    endloop
  endfacet
  facet normal -0 0 -1
    outer loop
      vertex 7 0 0
      vertex 3.42352 -0.727691 0
      vertex 3.5 0 0
    endloop
  endfacet
  facet normal 0 0 -1
    outer loop
      vertex 2.42705 -4.73664 0
      vertex 5.66312 -4.1145 0
      vertex 4.1145 -5.66312 0
    endloop
  endfacet
  facet normal 0 0 -1
    outer loop
      vertex 3.42352 0.727691 0
      vertex 7 0 0
      vertex 3.5 0 0
    endloop
  endfacet
  facet normal 0 0 -1
    outer loop
      vertex 3.19741 1.42358 0
      vertex 6.6574 2.16312 0
      vertex 3.42352 0.727691 0
    endloop
  endfacet
  facet normal 0 0 -1
    outer loop
      vertex 7 0 0
      vertex 3.42352 0.727691 0
      vertex 6.6574 2.16312 0
    endloop
  endfacet
  facet normal 0 0 -1
    outer loop
      vertex 6.6574 -2.16312 0
      vertex 3.19741 -1.42358 0
      vertex 3.42352 -0.727691 0
    endloop
  endfacet
  facet normal 0 0 -1
    outer loop
      vertex 2.93444 -5.87626 0
      vertex 4.1145 -5.66312 0
      vertex 2.97316 -6.24466 0
    endloop
  endfacet
  facet normal 0 0 -1
    outer loop
      vertex 2.74064 -5.27979 0
      vertex 4.1145 -5.66312 0
      vertex 2.93444 -5.87626 0
    endloop
  endfacet
  facet normal 0 0 -1
    outer loop
      vertex 2.42705 -4.73664 0
      vertex 4.1145 -5.66312 0
      vertex 2.74064 -5.27979 0
    endloop
  endfacet
  facet normal 0 0 -1
    outer loop
      vertex 5.66312 -4.1145 0
      vertex 2.83156 -2.05725 0
      vertex 3.19741 -1.42358 0
    endloop
  endfacet
  facet normal 0 0 -1
    outer loop
      vertex 2.28386 -4.48316 0
      vertex 5.66312 -4.1145 0
      vertex 2.42705 -4.73664 0
    endloop
  endfacet
  facet normal 0 -0 -1
    outer loop
      vertex 2.34196 -2.60101 0
      vertex 5.66312 -4.1145 0
      vertex 2.28386 -4.48316 0
    endloop
  endfacet
  facet normal 0 0 -1
    outer loop
      vertex 2.28386 -4.48316 0
      vertex 2.42705 -4.73664 0
      vertex 2.33188 -4.63095 0
    endloop
  endfacet
  facet normal 0 0 -1
    outer loop
      vertex 5.66312 -4.1145 0
      vertex 2.34196 -2.60101 0
      vertex 2.83156 -2.05725 0
    endloop
  endfacet
  facet normal 0 0 -1
    outer loop
      vertex 2.02254 -4.03054 0
      vertex 2.34196 -2.60101 0
      vertex 2.28386 -4.48316 0
    endloop
  endfacet
  facet normal 0 0 -1
    outer loop
      vertex 2.02254 -4.03054 0
      vertex 1.75 -3.03109 0
      vertex 2.34196 -2.60101 0
    endloop
  endfacet
  facet normal 0 0 -1
    outer loop
      vertex 1.67283 -3.64214 0
      vertex 1.75 -3.03109 0
      vertex 2.02254 -4.03054 0
    endloop
  endfacet
  facet normal 0 0 -1
    outer loop
      vertex 1.25 -3.33494 0
      vertex 1.75 -3.03109 0
      vertex 1.67283 -3.64214 0
    endloop
  endfacet
  facet normal 0 0 -1
    outer loop
      vertex 1.75 -3.03109 0
      vertex 1.25 -3.33494 0
      vertex 1.15877 -3.29432 0
    endloop
  endfacet
  facet normal -0 0 -1
    outer loop
      vertex 6.6574 2.16312 0
      vertex 3.19741 1.42358 0
      vertex 5.66312 4.1145 0
    endloop
  endfacet
  facet normal 0 0 -1
    outer loop
      vertex 2.83156 2.05725 0
      vertex 5.66312 4.1145 0
      vertex 3.19741 1.42358 0
    endloop
  endfacet
  facet normal 0 0 -1
    outer loop
      vertex 2.34196 2.60101 0
      vertex 5.66312 4.1145 0
      vertex 2.83156 2.05725 0
    endloop
  endfacet
  facet normal -0 0 -1
    outer loop
      vertex 5.66312 4.1145 0
      vertex 2.34196 2.60101 0
      vertex 4.1145 5.66312 0
    endloop
  endfacet
  facet normal 0 0 -1
    outer loop
      vertex 1.75 3.03109 0
      vertex 4.1145 5.66312 0
      vertex 2.34196 2.60101 0
    endloop
  endfacet
  facet normal -0 0 -1
    outer loop
      vertex 4.1145 5.66312 0
      vertex 1.75 3.03109 0
      vertex 2.16312 6.6574 0
    endloop
  endfacet
  facet normal 0 0 -1
    outer loop
      vertex 1.08156 3.3287 0
      vertex 2.16312 6.6574 0
      vertex 1.75 3.03109 0
    endloop
  endfacet
  facet normal 0 0 -1
    outer loop
      vertex 0.365849 3.48083 0
      vertex 2.16312 6.6574 0
      vertex 1.08156 3.3287 0
    endloop
  endfacet
  facet normal 0 0 -1
    outer loop
      vertex 0.365849 3.48083 0
      vertex 0 7 0
      vertex 2.16312 6.6574 0
    endloop
  endfacet
  facet normal 0 0 -1
    outer loop
      vertex -0.365849 3.48083 0
      vertex 0 7 0
      vertex 0.365849 3.48083 0
    endloop
  endfacet
  facet normal 0 0 -1
    outer loop
      vertex -2.16312 6.6574 0
      vertex -0.365849 3.48083 0
      vertex -1.08156 3.3287 0
    endloop
  endfacet
  facet normal 0 0 -1
    outer loop
      vertex -2.16312 6.6574 0
      vertex -1.08156 3.3287 0
      vertex -1.75 3.03109 0
    endloop
  endfacet
  facet normal 0 0 -1
    outer loop
      vertex -0.365849 3.48083 0
      vertex -2.16312 6.6574 0
      vertex 0 7 0
    endloop
  endfacet
  facet normal 0 0 -1
    outer loop
      vertex -4.1145 5.66312 0
      vertex -1.75 3.03109 0
      vertex -2.34196 2.60101 0
    endloop
  endfacet
  facet normal 0 0 -1
    outer loop
      vertex -5.66312 4.1145 0
      vertex -2.34196 2.60101 0
      vertex -2.83156 2.05725 0
    endloop
  endfacet
  facet normal 0 0 -1
    outer loop
      vertex -5.66312 4.1145 0
      vertex -2.83156 2.05725 0
      vertex -3.19741 1.42358 0
    endloop
  endfacet
  facet normal 0 0 -1
    outer loop
      vertex -6.6574 2.16312 0
      vertex -3.19741 1.42358 0
      vertex -3.42352 0.727691 0
    endloop
  endfacet
  facet normal -0 0 -1
    outer loop
      vertex -3.19741 -1.42358 0
      vertex -6.6574 -2.16312 0
      vertex -3.42352 -0.727691 0
    endloop
  endfacet
  facet normal 0 0 -1
    outer loop
      vertex -1.75 3.03109 0
      vertex -4.1145 5.66312 0
      vertex -2.16312 6.6574 0
    endloop
  endfacet
  facet normal 0 0 -1
    outer loop
      vertex -7 0 0
      vertex -3.42352 -0.727691 0
      vertex -6.6574 -2.16312 0
    endloop
  endfacet
  facet normal 0 0 -1
    outer loop
      vertex -3.42352 -0.727691 0
      vertex -7 0 0
      vertex -3.5 0 0
    endloop
  endfacet
  facet normal 0 0 -1
    outer loop
      vertex -2.34196 2.60101 0
      vertex -5.66312 4.1145 0
      vertex -4.1145 5.66312 0
    endloop
  endfacet
  facet normal 0 0 -1
    outer loop
      vertex -3.5 0 0
      vertex -7 0 0
      vertex -3.42352 0.727691 0
    endloop
  endfacet
  facet normal 0 0 -1
    outer loop
      vertex -3.19741 1.42358 0
      vertex -6.6574 2.16312 0
      vertex -5.66312 4.1145 0
    endloop
  endfacet
  facet normal -0 0 -1
    outer loop
      vertex -3.42352 0.727691 0
      vertex -7 0 0
      vertex -6.6574 2.16312 0
    endloop
  endfacet
  facet normal 0.707107 0.707107 0
    outer loop
      vertex 5.66312 4.1145 2
      vertex 4.1145 5.66312 0
      vertex 4.1145 5.66312 2
    endloop
  endfacet
  facet normal 0.707107 0.707107 0
    outer loop
      vertex 4.1145 5.66312 0
      vertex 5.66312 4.1145 2
      vertex 5.66312 4.1145 0
    endloop
  endfacet
  facet normal 0.891006 0.453991 0
    outer loop
      vertex 6.6574 2.16312 2
      vertex 5.66312 4.1145 0
      vertex 5.66312 4.1145 2
    endloop
  endfacet
  facet normal 0.891006 0.453991 0
    outer loop
      vertex 5.66312 4.1145 0
      vertex 6.6574 2.16312 2
      vertex 6.6574 2.16312 0
    endloop
  endfacet
  facet normal 0.453991 0.891006 -0
    outer loop
      vertex 4.1145 5.66312 0
      vertex 2.16312 6.6574 2
      vertex 4.1145 5.66312 2
    endloop
  endfacet
  facet normal 0.453991 0.891006 0
    outer loop
      vertex 2.16312 6.6574 2
      vertex 4.1145 5.66312 0
      vertex 2.16312 6.6574 0
    endloop
  endfacet
  facet normal -0.453991 0.891006 0
    outer loop
      vertex -2.16312 6.6574 0
      vertex -4.1145 5.66312 2
      vertex -2.16312 6.6574 2
    endloop
  endfacet
  facet normal -0.453991 0.891006 0
    outer loop
      vertex -4.1145 5.66312 2
      vertex -2.16312 6.6574 0
      vertex -4.1145 5.66312 0
    endloop
  endfacet
  facet normal -0 0 1
    outer loop
      vertex 1.71176 0.363845 2
      vertex 7 0 2
      vertex 6.6574 2.16312 2
    endloop
  endfacet
  facet normal 0 0 1
    outer loop
      vertex 1.5987 0.711788 2
      vertex 6.6574 2.16312 2
      vertex 5.66312 4.1145 2
    endloop
  endfacet
  facet normal 0 0 1
    outer loop
      vertex 7 0 2
      vertex 1.71176 0.363845 2
      vertex 1.75 0 2
    endloop
  endfacet
  facet normal 0 0 1
    outer loop
      vertex 1.17098 1.3005 2
      vertex 5.66312 4.1145 2
      vertex 4.1145 5.66312 2
    endloop
  endfacet
  facet normal 0 0 1
    outer loop
      vertex 1.71176 -0.363845 2
      vertex 7 0 2
      vertex 1.75 0 2
    endloop
  endfacet
  facet normal -0 0 1
    outer loop
      vertex 1.5987 -0.711788 2
      vertex 6.6574 -2.16312 2
      vertex 1.71176 -0.363845 2
    endloop
  endfacet
  facet normal 0 0 1
    outer loop
      vertex 4.1145 -5.66312 2
      vertex 2.93444 -5.87626 2
      vertex 2.97316 -6.24466 2
    endloop
  endfacet
  facet normal 0 0 1
    outer loop
      vertex 4.1145 -5.66312 2
      vertex 2.74064 -5.27979 2
      vertex 2.93444 -5.87626 2
    endloop
  endfacet
  facet normal 0 0 1
    outer loop
      vertex 6.6574 -2.16312 2
      vertex 1.5987 -0.711788 2
      vertex 5.66312 -4.1145 2
    endloop
  endfacet
  facet normal -0 -0 1
    outer loop
      vertex 2.02254 -4.03054 2
      vertex 5.66312 -4.1145 2
      vertex 1.5987 -0.711788 2
    endloop
  endfacet
  facet normal 0 0 1
    outer loop
      vertex 2.42705 -4.73664 2
      vertex 2.28386 -4.48316 2
      vertex 2.33188 -4.63095 2
    endloop
  endfacet
  facet normal 0 0 1
    outer loop
      vertex 0.875 1.51554 2
      vertex 4.1145 5.66312 2
      vertex 2.16312 6.6574 2
    endloop
  endfacet
  facet normal 0 0 1
    outer loop
      vertex 4.1145 -5.66312 2
      vertex 2.42705 -4.73664 2
      vertex 2.74064 -5.27979 2
    endloop
  endfacet
  facet normal 0 0 1
    outer loop
      vertex 5.66312 -4.1145 2
      vertex 2.42705 -4.73664 2
      vertex 4.1145 -5.66312 2
    endloop
  endfacet
  facet normal 0 0 1
    outer loop
      vertex 7 0 2
      vertex 1.71176 -0.363845 2
      vertex 6.6574 -2.16312 2
    endloop
  endfacet
  facet normal 0 0 1
    outer loop
      vertex 6.6574 2.16312 2
      vertex 1.5987 0.711788 2
      vertex 1.71176 0.363845 2
    endloop
  endfacet
  facet normal 0 0 1
    outer loop
      vertex 5.66312 4.1145 2
      vertex 1.41578 1.02862 2
      vertex 1.5987 0.711788 2
    endloop
  endfacet
  facet normal 0 0 1
    outer loop
      vertex 5.66312 4.1145 2
      vertex 1.17098 1.3005 2
      vertex 1.41578 1.02862 2
    endloop
  endfacet
  facet normal 0 0 1
    outer loop
      vertex 4.1145 5.66312 2
      vertex 0.875 1.51554 2
      vertex 1.17098 1.3005 2
    endloop
  endfacet
  facet normal 0 0 1
    outer loop
      vertex 2.16312 6.6574 2
      vertex 0.540779 1.66435 2
      vertex 0.875 1.51554 2
    endloop
  endfacet
  facet normal 0 0 1
    outer loop
      vertex 2.16312 6.6574 2
      vertex 0.182924 1.74041 2
      vertex 0.540779 1.66435 2
    endloop
  endfacet
  facet normal 0 0 1
    outer loop
      vertex 0 7 2
      vertex 0.182924 1.74041 2
      vertex 2.16312 6.6574 2
    endloop
  endfacet
  facet normal 0 0 1
    outer loop
      vertex 0 7 2
      vertex -0.182924 1.74041 2
      vertex 0.182924 1.74041 2
    endloop
  endfacet
  facet normal -0 0 1
    outer loop
      vertex -2.16312 6.6574 2
      vertex -0.182924 1.74041 2
      vertex 0 7 2
    endloop
  endfacet
  facet normal 0 0 1
    outer loop
      vertex -0.182924 1.74041 2
      vertex -2.16312 6.6574 2
      vertex -0.540779 1.66435 2
    endloop
  endfacet
  facet normal 0 0 1
    outer loop
      vertex -0.540779 1.66435 2
      vertex -2.16312 6.6574 2
      vertex -0.874999 1.51554 2
    endloop
  endfacet
  facet normal -0 0 1
    outer loop
      vertex -4.1145 5.66312 2
      vertex -0.874999 1.51554 2
      vertex -2.16312 6.6574 2
    endloop
  endfacet
  facet normal 0 0 1
    outer loop
      vertex -0.874999 1.51554 2
      vertex -4.1145 5.66312 2
      vertex -1.17098 1.3005 2
    endloop
  endfacet
  facet normal -0 0 1
    outer loop
      vertex -5.66312 4.1145 2
      vertex -1.17098 1.3005 2
      vertex -4.1145 5.66312 2
    endloop
  endfacet
  facet normal 0 0 1
    outer loop
      vertex -1.17098 1.3005 2
      vertex -5.66312 4.1145 2
      vertex -1.41578 1.02862 2
    endloop
  endfacet
  facet normal 0 0 1
    outer loop
      vertex -1.41578 1.02862 2
      vertex -5.66312 4.1145 2
      vertex -1.5987 0.711788 2
    endloop
  endfacet
  facet normal -0 0 1
    outer loop
      vertex -6.6574 2.16312 2
      vertex -1.5987 0.711788 2
      vertex -5.66312 4.1145 2
    endloop
  endfacet
  facet normal 0 0 1
    outer loop
      vertex -1.5987 0.711788 2
      vertex -6.6574 2.16312 2
      vertex -1.71176 0.363845 2
    endloop
  endfacet
  facet normal 0 0 1
    outer loop
      vertex -7 0 2
      vertex -1.71176 0.363845 2
      vertex -6.6574 2.16312 2
    endloop
  endfacet
  facet normal 0 0 1
    outer loop
      vertex -1.71176 0.363845 2
      vertex -7 0 2
      vertex -1.75 0 2
    endloop
  endfacet
  facet normal 0 -0 1
    outer loop
      vertex -6.6574 -2.16312 2
      vertex -1.75 0 2
      vertex -7 0 2
    endloop
  endfacet
  facet normal 0 0 1
    outer loop
      vertex -1.75 0 2
      vertex -6.6574 -2.16312 2
      vertex -2.02254 -4.03054 2
    endloop
  endfacet
  facet normal 0 -0 1
    outer loop
      vertex -5.66312 -4.1145 2
      vertex -2.02254 -4.03054 2
      vertex -6.6574 -2.16312 2
    endloop
  endfacet
  facet normal 0 0 1
    outer loop
      vertex -2.02254 -4.03054 2
      vertex -5.66312 -4.1145 2
      vertex -2.28386 -4.48316 2
    endloop
  endfacet
  facet normal 0 -0 1
    outer loop
      vertex -2.42705 -4.73664 2
      vertex -2.28386 -4.48316 2
      vertex -5.66312 -4.1145 2
    endloop
  endfacet
  facet normal 0 0 1
    outer loop
      vertex -2.28386 -4.48316 2
      vertex -2.42705 -4.73664 2
      vertex -2.33188 -4.63095 2
    endloop
  endfacet
  facet normal 0 0 1
    outer loop
      vertex -2.93444 -5.87626 2
      vertex -4.1145 -5.66312 2
      vertex -2.97316 -6.24466 2
    endloop
  endfacet
  facet normal 0 0 1
    outer loop
      vertex -2.42705 -4.73664 2
      vertex -4.1145 -5.66312 2
      vertex -2.74064 -5.27979 2
    endloop
  endfacet
  facet normal 0 0 1
    outer loop
      vertex -2.74064 -5.27979 2
      vertex -4.1145 -5.66312 2
      vertex -2.93444 -5.87626 2
    endloop
  endfacet
  facet normal 0 -0 1
    outer loop
      vertex -4.1145 -5.66312 2
      vertex -2.42705 -4.73664 2
      vertex -5.66312 -4.1145 2
    endloop
  endfacet
  facet normal 0 -0 1
    outer loop
      vertex 2.42705 -4.73664 2
      vertex 5.66312 -4.1145 2
      vertex 2.28386 -4.48316 2
    endloop
  endfacet
  facet normal 0 -0 1
    outer loop
      vertex 2.28386 -4.48316 2
      vertex 5.66312 -4.1145 2
      vertex 2.02254 -4.03054 2
    endloop
  endfacet
  facet normal 0 0 1
    outer loop
      vertex 2.02254 -4.03054 2
      vertex 1.5987 -0.711788 2
      vertex 1.67283 -3.64214 2
    endloop
  endfacet
  facet normal -0 0 1
    outer loop
      vertex 1.41578 -1.02862 2
      vertex 1.67283 -3.64214 2
      vertex 1.5987 -0.711788 2
    endloop
  endfacet
  facet normal -0 0 1
    outer loop
      vertex 1.17098 -1.3005 2
      vertex 1.67283 -3.64214 2
      vertex 1.41578 -1.02862 2
    endloop
  endfacet
  facet normal 0 0 1
    outer loop
      vertex 1.67283 -3.64214 2
      vertex 1.17098 -1.3005 2
      vertex 1.25 -3.33494 2
    endloop
  endfacet
  facet normal -0 0 1
    outer loop
      vertex 0.875 -1.51554 2
      vertex 1.25 -3.33494 2
      vertex 1.17098 -1.3005 2
    endloop
  endfacet
  facet normal 0 0 1
    outer loop
      vertex 0.875 -1.51554 2
      vertex 0.772542 -3.12236 2
      vertex 1.25 -3.33494 2
    endloop
  endfacet
  facet normal -0 0 1
    outer loop
      vertex 0.540779 -1.66435 2
      vertex 0.772542 -3.12236 2
      vertex 0.875 -1.51554 2
    endloop
  endfacet
  facet normal 0 0 1
    outer loop
      vertex 0.540779 -1.66435 2
      vertex 0.261321 -3.01369 2
      vertex 0.772542 -3.12236 2
    endloop
  endfacet
  facet normal -0 0 1
    outer loop
      vertex 0.182924 -1.74041 2
      vertex 0.261321 -3.01369 2
      vertex 0.540779 -1.66435 2
    endloop
  endfacet
  facet normal -0 0 1
    outer loop
      vertex -0.182924 -1.74041 2
      vertex 0.261321 -3.01369 2
      vertex 0.182924 -1.74041 2
    endloop
  endfacet
  facet normal 0 0 1
    outer loop
      vertex -0.182924 -1.74041 2
      vertex -0.261321 -3.01369 2
      vertex 0.261321 -3.01369 2
    endloop
  endfacet
  facet normal 0 0 1
    outer loop
      vertex -0.540779 -1.66435 2
      vertex -0.261321 -3.01369 2
      vertex -0.182924 -1.74041 2
    endloop
  endfacet
  facet normal 0 0 1
    outer loop
      vertex -0.540779 -1.66435 2
      vertex -0.772542 -3.12236 2
      vertex -0.261321 -3.01369 2
    endloop
  endfacet
  facet normal 0 0 1
    outer loop
      vertex -0.875 -1.51554 2
      vertex -0.772542 -3.12236 2
      vertex -0.540779 -1.66435 2
    endloop
  endfacet
  facet normal 0 0 1
    outer loop
      vertex -1.25 -3.33494 2
      vertex -0.875 -1.51554 2
      vertex -1.17098 -1.3005 2
    endloop
  endfacet
  facet normal 0 0 1
    outer loop
      vertex -0.875 -1.51554 2
      vertex -1.25 -3.33494 2
      vertex -0.772542 -3.12236 2
    endloop
  endfacet
  facet normal 0 0 1
    outer loop
      vertex -1.67283 -3.64214 2
      vertex -1.17098 -1.3005 2
      vertex -1.41578 -1.02862 2
    endloop
  endfacet
  facet normal 0 0 1
    outer loop
      vertex -1.67283 -3.64214 2
      vertex -1.41578 -1.02862 2
      vertex -1.5987 -0.711788 2
    endloop
  endfacet
  facet normal 0 0 1
    outer loop
      vertex -1.17098 -1.3005 2
      vertex -1.67283 -3.64214 2
      vertex -1.25 -3.33494 2
    endloop
  endfacet
  facet normal 0 0 1
    outer loop
      vertex -2.02254 -4.03054 2
      vertex -1.5987 -0.711788 2
      vertex -1.71176 -0.363845 2
    endloop
  endfacet
  facet normal 0 0 1
    outer loop
      vertex -2.02254 -4.03054 2
      vertex -1.71176 -0.363845 2
      vertex -1.75 0 2
    endloop
  endfacet
  facet normal 0 0 1
    outer loop
      vertex -1.5987 -0.711788 2
      vertex -2.02254 -4.03054 2
      vertex -1.67283 -3.64214 2
    endloop
  endfacet
  facet normal -0.156435 0.987688 0
    outer loop
      vertex 0 7 0
      vertex -2.16312 6.6574 2
      vertex 0 7 2
    endloop
  endfacet
  facet normal -0.156435 0.987688 0
    outer loop
      vertex -2.16312 6.6574 2
      vertex 0 7 0
      vertex -2.16312 6.6574 0
    endloop
  endfacet
  facet normal -0.987688 -0.156435 0
    outer loop
      vertex -6.6574 -2.16312 0
      vertex -7 0 2
      vertex -7 0 0
    endloop
  endfacet
  facet normal -0.987688 -0.156435 0
    outer loop
      vertex -7 0 2
      vertex -6.6574 -2.16312 0
      vertex -6.6574 -2.16312 2
    endloop
  endfacet
  facet normal -0.707107 0.707107 0
    outer loop
      vertex -5.66312 4.1145 0
      vertex -4.1145 5.66312 2
      vertex -4.1145 5.66312 0
    endloop
  endfacet
  facet normal -0.707107 0.707107 0
    outer loop
      vertex -4.1145 5.66312 2
      vertex -5.66312 4.1145 0
      vertex -5.66312 4.1145 2
    endloop
  endfacet
  facet normal -0.891006 0.453991 0
    outer loop
      vertex -6.6574 2.16312 0
      vertex -5.66312 4.1145 2
      vertex -5.66312 4.1145 0
    endloop
  endfacet
  facet normal -0.891006 0.453991 0
    outer loop
      vertex -5.66312 4.1145 2
      vertex -6.6574 2.16312 0
      vertex -6.6574 2.16312 2
    endloop
  endfacet
  facet normal 0.987688 -0.156435 0
    outer loop
      vertex 6.6574 -2.16312 2
      vertex 7 0 0
      vertex 7 0 2
    endloop
  endfacet
  facet normal 0.987688 -0.156435 0
    outer loop
      vertex 7 0 0
      vertex 6.6574 -2.16312 2
      vertex 6.6574 -2.16312 0
    endloop
  endfacet
  facet normal 0.891006 -0.453991 0
    outer loop
      vertex 5.66312 -4.1145 2
      vertex 6.6574 -2.16312 0
      vertex 6.6574 -2.16312 2
    endloop
  endfacet
  facet normal 0.891006 -0.453991 0
    outer loop
      vertex 6.6574 -2.16312 0
      vertex 5.66312 -4.1145 2
      vertex 5.66312 -4.1145 0
    endloop
  endfacet
  facet normal -0.707107 -0.707107 0
    outer loop
      vertex -4.1145 -5.66312 0
      vertex -5.66312 -4.1145 2
      vertex -5.66312 -4.1145 0
    endloop
  endfacet
  facet normal -0.707107 -0.707107 0
    outer loop
      vertex -5.66312 -4.1145 2
      vertex -4.1145 -5.66312 0
      vertex -4.1145 -5.66312 2
    endloop
  endfacet
  facet normal -0.891006 -0.453991 0
    outer loop
      vertex -5.66312 -4.1145 0
      vertex -6.6574 -2.16312 2
      vertex -6.6574 -2.16312 0
    endloop
  endfacet
  facet normal -0.891006 -0.453991 0
    outer loop
      vertex -6.6574 -2.16312 2
      vertex -5.66312 -4.1145 0
      vertex -5.66312 -4.1145 2
    endloop
  endfacet
  facet normal 0.453991 -0.891007 0
    outer loop
      vertex 2.97316 -6.24466 0
      vertex 4.1145 -5.66312 2
      vertex 2.97316 -6.24466 2
    endloop
  endfacet
  facet normal 0.453991 -0.891007 0
    outer loop
      vertex 4.1145 -5.66312 2
      vertex 2.97316 -6.24466 0
      vertex 4.1145 -5.66312 0
    endloop
  endfacet
  facet normal -0.453991 -0.891007 0
    outer loop
      vertex -4.1145 -5.66312 0
      vertex -2.97316 -6.24466 2
      vertex -4.1145 -5.66312 2
    endloop
  endfacet
  facet normal -0.453991 -0.891007 -0
    outer loop
      vertex -2.97316 -6.24466 2
      vertex -4.1145 -5.66312 0
      vertex -2.97316 -6.24466 0
    endloop
  endfacet
  facet normal 0.707107 -0.707107 0
    outer loop
      vertex 4.1145 -5.66312 2
      vertex 5.66312 -4.1145 0
      vertex 5.66312 -4.1145 2
    endloop
  endfacet
  facet normal 0.707107 -0.707107 0
    outer loop
      vertex 5.66312 -4.1145 0
      vertex 4.1145 -5.66312 2
      vertex 4.1145 -5.66312 0
    endloop
  endfacet
  facet normal -0.965138 -0.101441 -0.241285
    outer loop
      vertex 3.42352 0.727691 0
      vertex 3.5 0 0
      vertex 3.25 0 1
    endloop
  endfacet
  facet normal -0.570419 -0.785114 -0.241285
    outer loop
      vertex 1.75 3.03109 0
      vertex 2.17467 2.41522 1
      vertex 1.625 2.81458 1
    endloop
  endfacet
  facet normal -0.721188 -0.649361 -0.241285
    outer loop
      vertex 2.34196 2.60101 0
      vertex 2.83156 2.05725 0
      vertex 2.17467 2.41522 1
    endloop
  endfacet
  facet normal 0.201769 -0.949248 -0.241285
    outer loop
      vertex -0.365849 3.48083 0
      vertex -0.339717 3.2322 1
      vertex -1.08156 3.3287 0
    endloop
  endfacet
  facet normal -0.922957 -0.299887 -0.241285
    outer loop
      vertex 3.42352 0.727691 0
      vertex 3.17898 0.675713 1
      vertex 2.96902 1.32189 1
    endloop
  endfacet
  facet normal 0.201769 -0.949247 -0.241285
    outer loop
      vertex -0.339717 3.2322 1
      vertex -1.0043 3.09093 1
      vertex -1.08156 3.3287 0
    endloop
  endfacet
  facet normal 0.965138 -0.101441 -0.241285
    outer loop
      vertex -3.42352 0.727691 0
      vertex -3.25 0 1
      vertex -3.5 0 0
    endloop
  endfacet
  facet normal -0.840438 0.485227 -0.241285
    outer loop
      vertex 2.96902 -1.32189 1
      vertex 3.19741 -1.42358 0
      vertex 2.83156 -2.05725 0
    endloop
  endfacet
  facet normal 0.570418 -0.785114 -0.241285
    outer loop
      vertex -1.75 3.03109 0
      vertex -2.17467 2.41522 1
      vertex -2.34196 2.60101 0
    endloop
  endfacet
  facet normal 0 -0.970454 -0.241285
    outer loop
      vertex -0.365849 3.48083 0
      vertex 0.339717 3.2322 1
      vertex -0.339717 3.2322 1
    endloop
  endfacet
  facet normal 0 -0.970454 -0.241285
    outer loop
      vertex 0.339717 3.2322 1
      vertex -0.365849 3.48083 0
      vertex 0.365849 3.48083 0
    endloop
  endfacet
  facet normal -0.394719 -0.886554 -0.241285
    outer loop
      vertex 1.08156 3.3287 0
      vertex 1.75 3.03109 0
      vertex 1.0043 3.09093 1
    endloop
  endfacet
  facet normal -0.965138 -0.101441 -0.241285
    outer loop
      vertex 3.42352 0.727691 0
      vertex 3.25 0 1
      vertex 3.17898 0.675713 1
    endloop
  endfacet
  facet normal 0.922957 0.299887 -0.241285
    outer loop
      vertex -3.17898 -0.675713 1
      vertex -2.96902 -1.32189 1
      vertex -3.42352 -0.727691 0
    endloop
  endfacet
  facet normal 0.570419 0.785114 -0.241285
    outer loop
      vertex -2.17467 -2.41522 1
      vertex -1.75 -3.03109 0
      vertex -2.34196 -2.60101 0
    endloop
  endfacet
  facet normal 0.570419 0.785114 -0.241285
    outer loop
      vertex -1.625 -2.81458 1
      vertex -1.75 -3.03109 0
      vertex -2.17467 -2.41522 1
    endloop
  endfacet
  facet normal -0.840438 0.485227 -0.241285
    outer loop
      vertex 2.96902 -1.32189 1
      vertex 2.83156 -2.05725 0
      vertex 2.6293 -1.9103 1
    endloop
  endfacet
  facet normal -0.965138 0.101441 -0.241285
    outer loop
      vertex 3.5 0 0
      vertex 3.42352 -0.727691 0
      vertex 3.25 0 1
    endloop
  endfacet
  facet normal 0.394719 -0.886554 -0.241285
    outer loop
      vertex -1.08156 3.3287 0
      vertex -1.0043 3.09093 1
      vertex -1.75 3.03109 0
    endloop
  endfacet
  facet normal -0.201769 -0.949247 -0.241285
    outer loop
      vertex 1.08156 3.3287 0
      vertex 1.0043 3.09093 1
      vertex 0.339717 3.2322 1
    endloop
  endfacet
  facet normal -0.570419 -0.785114 -0.241285
    outer loop
      vertex 2.34196 2.60101 0
      vertex 2.17467 2.41522 1
      vertex 1.75 3.03109 0
    endloop
  endfacet
  facet normal -0.840438 -0.485227 -0.241285
    outer loop
      vertex 2.83156 2.05725 0
      vertex 2.96902 1.32189 1
      vertex 2.6293 1.9103 1
    endloop
  endfacet
  facet normal -0.721188 -0.64936 -0.241285
    outer loop
      vertex 2.83156 2.05725 0
      vertex 2.6293 1.9103 1
      vertex 2.17467 2.41522 1
    endloop
  endfacet
  facet normal -0.840438 -0.485227 -0.241285
    outer loop
      vertex 3.19741 1.42358 0
      vertex 2.96902 1.32189 1
      vertex 2.83156 2.05725 0
    endloop
  endfacet
  facet normal -0.922957 -0.299887 -0.241285
    outer loop
      vertex 3.19741 1.42358 0
      vertex 3.42352 0.727691 0
      vertex 2.96902 1.32189 1
    endloop
  endfacet
  facet normal 0.840438 0.485227 -0.241285
    outer loop
      vertex -2.6293 -1.9103 1
      vertex -2.83156 -2.05725 0
      vertex -2.96902 -1.32189 1
    endloop
  endfacet
  facet normal 0 0 -1
    outer loop
      vertex 1.75 0 1
      vertex 3.25 0 1
      vertex 3.17898 -0.675713 1
    endloop
  endfacet
  facet normal 0 0 -1
    outer loop
      vertex 1.71176 -0.363845 1
      vertex 3.17898 -0.675713 1
      vertex 2.96902 -1.32189 1
    endloop
  endfacet
  facet normal 0 0 -1
    outer loop
      vertex 3.25 0 1
      vertex 1.75 0 1
      vertex 3.17898 0.675713 1
    endloop
  endfacet
  facet normal 0 0 -1
    outer loop
      vertex 1.5987 -0.711788 1
      vertex 2.96902 -1.32189 1
      vertex 2.6293 -1.9103 1
    endloop
  endfacet
  facet normal 0 0 -1
    outer loop
      vertex 1.71176 0.363845 1
      vertex 3.17898 0.675713 1
      vertex 1.75 0 1
    endloop
  endfacet
  facet normal 0 0 -1
    outer loop
      vertex 1.41578 -1.02862 1
      vertex 2.6293 -1.9103 1
      vertex 2.17467 -2.41522 1
    endloop
  endfacet
  facet normal -0 0 -1
    outer loop
      vertex 3.17898 0.675713 1
      vertex 1.71176 0.363845 1
      vertex 2.96902 1.32189 1
    endloop
  endfacet
  facet normal 0 0 -1
    outer loop
      vertex 1.5987 0.711788 1
      vertex 2.96902 1.32189 1
      vertex 1.71176 0.363845 1
    endloop
  endfacet
  facet normal 0 0 -1
    outer loop
      vertex 3.17898 -0.675713 1
      vertex 1.71176 -0.363845 1
      vertex 1.75 0 1
    endloop
  endfacet
  facet normal 0 0 -1
    outer loop
      vertex 1.17098 -1.3005 1
      vertex 2.17467 -2.41522 1
      vertex 1.625 -2.81458 1
    endloop
  endfacet
  facet normal 0 0 -1
    outer loop
      vertex 2.96902 -1.32189 1
      vertex 1.5987 -0.711788 1
      vertex 1.71176 -0.363845 1
    endloop
  endfacet
  facet normal 0 0 -1
    outer loop
      vertex 2.6293 -1.9103 1
      vertex 1.41578 -1.02862 1
      vertex 1.5987 -0.711788 1
    endloop
  endfacet
  facet normal 0 0 -1
    outer loop
      vertex 2.17467 -2.41522 1
      vertex 1.17098 -1.3005 1
      vertex 1.41578 -1.02862 1
    endloop
  endfacet
  facet normal 0 0 -1
    outer loop
      vertex 0.875 -1.51554 1
      vertex 1.625 -2.81458 1
      vertex 1.0043 -3.09093 1
    endloop
  endfacet
  facet normal 0 0 -1
    outer loop
      vertex 1.625 -2.81458 1
      vertex 0.875 -1.51554 1
      vertex 1.17098 -1.3005 1
    endloop
  endfacet
  facet normal 0 0 -1
    outer loop
      vertex 0.772542 -3.12236 1
      vertex 1.0043 -3.09093 1
      vertex 0.799659 -3.13443 1
    endloop
  endfacet
  facet normal 0 0 -1
    outer loop
      vertex 0.540779 -1.66435 1
      vertex 1.0043 -3.09093 1
      vertex 0.772542 -3.12236 1
    endloop
  endfacet
  facet normal 0 0 -1
    outer loop
      vertex 1.0043 -3.09093 1
      vertex 0.540779 -1.66435 1
      vertex 0.875 -1.51554 1
    endloop
  endfacet
  facet normal 0 0 -1
    outer loop
      vertex 0.261321 -3.01369 1
      vertex 0.540779 -1.66435 1
      vertex 0.772542 -3.12236 1
    endloop
  endfacet
  facet normal 0 0 -1
    outer loop
      vertex 0.261321 -3.01369 1
      vertex 0.182924 -1.74041 1
      vertex 0.540779 -1.66435 1
    endloop
  endfacet
  facet normal 0 0 -1
    outer loop
      vertex 0.261321 -3.01369 1
      vertex -0.182924 -1.74041 1
      vertex 0.182924 -1.74041 1
    endloop
  endfacet
  facet normal 0 0 -1
    outer loop
      vertex -0.261321 -3.01369 1
      vertex -0.182924 -1.74041 1
      vertex 0.261321 -3.01369 1
    endloop
  endfacet
  facet normal 0 0 -1
    outer loop
      vertex -0.261321 -3.01369 1
      vertex -0.540779 -1.66435 1
      vertex -0.182924 -1.74041 1
    endloop
  endfacet
  facet normal 0 0 -1
    outer loop
      vertex -0.772542 -3.12236 1
      vertex -0.540779 -1.66435 1
      vertex -0.261321 -3.01369 1
    endloop
  endfacet
  facet normal 0 0 -1
    outer loop
      vertex -1.0043 -3.09093 1
      vertex -0.772542 -3.12236 1
      vertex -0.799659 -3.13443 1
    endloop
  endfacet
  facet normal 0 0 -1
    outer loop
      vertex -0.772542 -3.12236 1
      vertex -1.0043 -3.09093 1
      vertex -0.540779 -1.66435 1
    endloop
  endfacet
  facet normal -0 0 -1
    outer loop
      vertex -0.540779 -1.66435 1
      vertex -1.0043 -3.09093 1
      vertex -0.875 -1.51554 1
    endloop
  endfacet
  facet normal 0 0 -1
    outer loop
      vertex -1.625 -2.81458 1
      vertex -0.875 -1.51554 1
      vertex -1.0043 -3.09093 1
    endloop
  endfacet
  facet normal -0 0 -1
    outer loop
      vertex -0.875 -1.51554 1
      vertex -1.625 -2.81458 1
      vertex -1.17098 -1.3005 1
    endloop
  endfacet
  facet normal 0 0 -1
    outer loop
      vertex -2.17467 -2.41522 1
      vertex -1.17098 -1.3005 1
      vertex -1.625 -2.81458 1
    endloop
  endfacet
  facet normal -0 0 -1
    outer loop
      vertex -1.17098 -1.3005 1
      vertex -2.17467 -2.41522 1
      vertex -1.41578 -1.02862 1
    endloop
  endfacet
  facet normal 0 0 -1
    outer loop
      vertex -2.6293 -1.9103 1
      vertex -1.41578 -1.02862 1
      vertex -2.17467 -2.41522 1
    endloop
  endfacet
  facet normal -0 0 -1
    outer loop
      vertex -1.41578 -1.02862 1
      vertex -2.6293 -1.9103 1
      vertex -1.5987 -0.711788 1
    endloop
  endfacet
  facet normal 0 0 -1
    outer loop
      vertex -2.96902 -1.32189 1
      vertex -1.5987 -0.711788 1
      vertex -2.6293 -1.9103 1
    endloop
  endfacet
  facet normal -0 0 -1
    outer loop
      vertex 2.96902 1.32189 1
      vertex 1.5987 0.711788 1
      vertex 2.6293 1.9103 1
    endloop
  endfacet
  facet normal 0 0 -1
    outer loop
      vertex 1.41578 1.02862 1
      vertex 2.6293 1.9103 1
      vertex 1.5987 0.711788 1
    endloop
  endfacet
  facet normal -0 0 -1
    outer loop
      vertex 2.6293 1.9103 1
      vertex 1.41578 1.02862 1
      vertex 2.17467 2.41522 1
    endloop
  endfacet
  facet normal 0 0 -1
    outer loop
      vertex 1.17098 1.3005 1
      vertex 2.17467 2.41522 1
      vertex 1.41578 1.02862 1
    endloop
  endfacet
  facet normal -0 0 -1
    outer loop
      vertex 2.17467 2.41522 1
      vertex 1.17098 1.3005 1
      vertex 1.625 2.81458 1
    endloop
  endfacet
  facet normal 0 0 -1
    outer loop
      vertex 0.875 1.51554 1
      vertex 1.625 2.81458 1
      vertex 1.17098 1.3005 1
    endloop
  endfacet
  facet normal -0 0 -1
    outer loop
      vertex 1.625 2.81458 1
      vertex 0.875 1.51554 1
      vertex 1.0043 3.09093 1
    endloop
  endfacet
  facet normal 0 0 -1
    outer loop
      vertex 0.540779 1.66435 1
      vertex 1.0043 3.09093 1
      vertex 0.875 1.51554 1
    endloop
  endfacet
  facet normal 0 0 -1
    outer loop
      vertex 0.540779 1.66435 1
      vertex 0.339717 3.2322 1
      vertex 1.0043 3.09093 1
    endloop
  endfacet
  facet normal 0 0 -1
    outer loop
      vertex 0.182924 1.74041 1
      vertex 0.339717 3.2322 1
      vertex 0.540779 1.66435 1
    endloop
  endfacet
  facet normal 0 0 -1
    outer loop
      vertex -0.182924 1.74041 1
      vertex 0.339717 3.2322 1
      vertex 0.182924 1.74041 1
    endloop
  endfacet
  facet normal 0 0 -1
    outer loop
      vertex -0.182924 1.74041 1
      vertex -0.339717 3.2322 1
      vertex 0.339717 3.2322 1
    endloop
  endfacet
  facet normal 0 0 -1
    outer loop
      vertex -0.540779 1.66435 1
      vertex -0.339717 3.2322 1
      vertex -0.182924 1.74041 1
    endloop
  endfacet
  facet normal 0 0 -1
    outer loop
      vertex -1.0043 3.09093 1
      vertex -0.540779 1.66435 1
      vertex -0.874999 1.51554 1
    endloop
  endfacet
  facet normal 0 0 -1
    outer loop
      vertex -0.540779 1.66435 1
      vertex -1.0043 3.09093 1
      vertex -0.339717 3.2322 1
    endloop
  endfacet
  facet normal 0 0 -1
    outer loop
      vertex -1.625 2.81458 1
      vertex -0.874999 1.51554 1
      vertex -1.17098 1.3005 1
    endloop
  endfacet
  facet normal 0 0 -1
    outer loop
      vertex -2.17467 2.41522 1
      vertex -1.17098 1.3005 1
      vertex -1.41578 1.02862 1
    endloop
  endfacet
  facet normal 0 0 -1
    outer loop
      vertex -2.6293 1.9103 1
      vertex -1.41578 1.02862 1
      vertex -1.5987 0.711788 1
    endloop
  endfacet
  facet normal 0 0 -1
    outer loop
      vertex -0.874999 1.51554 1
      vertex -1.625 2.81458 1
      vertex -1.0043 3.09093 1
    endloop
  endfacet
  facet normal 0 0 -1
    outer loop
      vertex -2.96902 1.32189 1
      vertex -1.5987 0.711788 1
      vertex -1.71176 0.363845 1
    endloop
  endfacet
  facet normal 0 0 -1
    outer loop
      vertex -3.17898 0.675713 1
      vertex -1.71176 0.363845 1
      vertex -1.75 0 1
    endloop
  endfacet
  facet normal -0 0 -1
    outer loop
      vertex -1.5987 -0.711788 1
      vertex -2.96902 -1.32189 1
      vertex -1.71176 -0.363845 1
    endloop
  endfacet
  facet normal 0 0 -1
    outer loop
      vertex -1.17098 1.3005 1
      vertex -2.17467 2.41522 1
      vertex -1.625 2.81458 1
    endloop
  endfacet
  facet normal 0 0 -1
    outer loop
      vertex -3.17898 -0.675713 1
      vertex -1.71176 -0.363845 1
      vertex -2.96902 -1.32189 1
    endloop
  endfacet
  facet normal 0 0 -1
    outer loop
      vertex -1.41578 1.02862 1
      vertex -2.6293 1.9103 1
      vertex -2.17467 2.41522 1
    endloop
  endfacet
  facet normal -0 0 -1
    outer loop
      vertex -1.71176 -0.363845 1
      vertex -3.17898 -0.675713 1
      vertex -1.75 0 1
    endloop
  endfacet
  facet normal 0 0 -1
    outer loop
      vertex -1.5987 0.711788 1
      vertex -2.96902 1.32189 1
      vertex -2.6293 1.9103 1
    endloop
  endfacet
  facet normal 0 0 -1
    outer loop
      vertex -3.25 0 1
      vertex -1.75 0 1
      vertex -3.17898 -0.675713 1
    endloop
  endfacet
  facet normal 0 0 -1
    outer loop
      vertex -1.71176 0.363845 1
      vertex -3.17898 0.675713 1
      vertex -2.96902 1.32189 1
    endloop
  endfacet
  facet normal 0 0 -1
    outer loop
      vertex -1.75 0 1
      vertex -3.25 0 1
      vertex -3.17898 0.675713 1
    endloop
  endfacet
  facet normal 0.965138 -0.101441 -0.241285
    outer loop
      vertex -3.17898 0.675713 1
      vertex -3.25 0 1
      vertex -3.42352 0.727691 0
    endloop
  endfacet
  facet normal 0.570418 -0.785114 -0.241285
    outer loop
      vertex -1.75 3.03109 0
      vertex -1.625 2.81458 1
      vertex -2.17467 2.41522 1
    endloop
  endfacet
  facet normal 0.840438 -0.485227 -0.241285
    outer loop
      vertex -2.83156 2.05725 0
      vertex -2.96902 1.32189 1
      vertex -3.19741 1.42358 0
    endloop
  endfacet
  facet normal 0.840438 -0.485227 -0.241285
    outer loop
      vertex -2.83156 2.05725 0
      vertex -2.6293 1.9103 1
      vertex -2.96902 1.32189 1
    endloop
  endfacet
  facet normal 0.394719 0.886554 -0.241285
    outer loop
      vertex -1.75 -3.03109 0
      vertex -1.05544 -3.24831 0.338083
      vertex -1.15877 -3.29432 0
    endloop
  endfacet
  facet normal 0.394719 0.886554 -0.241285
    outer loop
      vertex -1.05544 -3.24831 0.338083
      vertex -1.75 -3.03109 0
      vertex -1.0043 -3.09093 1
    endloop
  endfacet
  facet normal 0.20177 0.949247 -0.241285
    outer loop
      vertex -1.0043 -3.09093 1
      vertex -0.799659 -3.13443 1
      vertex -1.05544 -3.24831 0.338083
    endloop
  endfacet
  facet normal -0.20177 0.949247 -0.241285
    outer loop
      vertex 1.0043 -3.09093 1
      vertex 1.05544 -3.24831 0.338084
      vertex 0.799659 -3.13443 1
    endloop
  endfacet
  facet normal -0.570419 0.785114 -0.241285
    outer loop
      vertex 2.17467 -2.41522 1
      vertex 1.75 -3.03109 0
      vertex 1.625 -2.81458 1
    endloop
  endfacet
  facet normal -0.570419 0.785114 -0.241285
    outer loop
      vertex 2.17467 -2.41522 1
      vertex 2.34196 -2.60101 0
      vertex 1.75 -3.03109 0
    endloop
  endfacet
  facet normal -0.721188 0.64936 -0.241285
    outer loop
      vertex 2.6293 -1.9103 1
      vertex 2.83156 -2.05725 0
      vertex 2.17467 -2.41522 1
    endloop
  endfacet
  facet normal -0.721188 0.649361 -0.241285
    outer loop
      vertex 2.83156 -2.05725 0
      vertex 2.34196 -2.60101 0
      vertex 2.17467 -2.41522 1
    endloop
  endfacet
  facet normal -0.922957 0.299887 -0.241285
    outer loop
      vertex 3.42352 -0.727691 0
      vertex 3.19741 -1.42358 0
      vertex 2.96902 -1.32189 1
    endloop
  endfacet
  facet normal -0.201769 -0.949248 -0.241285
    outer loop
      vertex 0.365849 3.48083 0
      vertex 1.08156 3.3287 0
      vertex 0.339717 3.2322 1
    endloop
  endfacet
  facet normal 0.721188 0.649361 -0.241285
    outer loop
      vertex -2.17467 -2.41522 1
      vertex -2.34196 -2.60101 0
      vertex -2.83156 -2.05725 0
    endloop
  endfacet
  facet normal 0.965138 0.101441 -0.241285
    outer loop
      vertex -3.25 0 1
      vertex -3.17898 -0.675713 1
      vertex -3.42352 -0.727691 0
    endloop
  endfacet
  facet normal 0.965138 0.101441 -0.241285
    outer loop
      vertex -3.25 0 1
      vertex -3.42352 -0.727691 0
      vertex -3.5 0 0
    endloop
  endfacet
  facet normal 0.394719 -0.886554 -0.241285
    outer loop
      vertex -1.0043 3.09093 1
      vertex -1.625 2.81458 1
      vertex -1.75 3.03109 0
    endloop
  endfacet
  facet normal 0.721188 -0.64936 -0.241285
    outer loop
      vertex -2.17467 2.41522 1
      vertex -2.6293 1.9103 1
      vertex -2.83156 2.05725 0
    endloop
  endfacet
  facet normal 0.721188 -0.649361 -0.241285
    outer loop
      vertex -2.34196 2.60101 0
      vertex -2.17467 2.41522 1
      vertex -2.83156 2.05725 0
    endloop
  endfacet
  facet normal 0.922957 -0.299887 -0.241285
    outer loop
      vertex -3.19741 1.42358 0
      vertex -2.96902 1.32189 1
      vertex -3.42352 0.727691 0
    endloop
  endfacet
  facet normal 0.922957 -0.299887 -0.241285
    outer loop
      vertex -2.96902 1.32189 1
      vertex -3.17898 0.675713 1
      vertex -3.42352 0.727691 0
    endloop
  endfacet
  facet normal 0.394719 0.886554 -0.241285
    outer loop
      vertex -1.625 -2.81458 1
      vertex -1.0043 -3.09093 1
      vertex -1.75 -3.03109 0
    endloop
  endfacet
  facet normal -0.394719 0.886554 -0.241285
    outer loop
      vertex 1.75 -3.03109 0
      vertex 1.05544 -3.24831 0.338084
      vertex 1.0043 -3.09093 1
    endloop
  endfacet
  facet normal -0.394719 0.886555 -0.241284
    outer loop
      vertex 1.05544 -3.24831 0.338084
      vertex 1.75 -3.03109 0
      vertex 1.15877 -3.29432 0
    endloop
  endfacet
  facet normal -0.394719 0.886554 -0.241285
    outer loop
      vertex 1.625 -2.81458 1
      vertex 1.75 -3.03109 0
      vertex 1.0043 -3.09093 1
    endloop
  endfacet
  facet normal -0.922957 0.299887 -0.241285
    outer loop
      vertex 3.17898 -0.675713 1
      vertex 3.42352 -0.727691 0
      vertex 2.96902 -1.32189 1
    endloop
  endfacet
  facet normal -0.965138 0.101441 -0.241285
    outer loop
      vertex 3.25 0 1
      vertex 3.42352 -0.727691 0
      vertex 3.17898 -0.675713 1
    endloop
  endfacet
  facet normal -0.394719 -0.886554 -0.241285
    outer loop
      vertex 1.75 3.03109 0
      vertex 1.625 2.81458 1
      vertex 1.0043 3.09093 1
    endloop
  endfacet
  facet normal 0.721188 0.64936 -0.241285
    outer loop
      vertex -2.6293 -1.9103 1
      vertex -2.17467 -2.41522 1
      vertex -2.83156 -2.05725 0
    endloop
  endfacet
  facet normal 0.922957 0.299887 -0.241285
    outer loop
      vertex -2.96902 -1.32189 1
      vertex -3.19741 -1.42358 0
      vertex -3.42352 -0.727691 0
    endloop
  endfacet
  facet normal 0.840438 0.485227 -0.241285
    outer loop
      vertex -2.96902 -1.32189 1
      vertex -2.83156 -2.05725 0
      vertex -3.19741 -1.42358 0
    endloop
  endfacet
  facet normal -0.994522 -0.10453 0
    outer loop
      vertex 1.75 0 1
      vertex 1.71176 0.363845 2
      vertex 1.71176 0.363845 1
    endloop
  endfacet
  facet normal -0.994522 -0.10453 0
    outer loop
      vertex 1.71176 0.363845 2
      vertex 1.75 0 1
      vertex 1.75 0 2
    endloop
  endfacet
  facet normal 0.994522 -0.10453 0
    outer loop
      vertex -1.75 0 2
      vertex -1.71176 0.363845 1
      vertex -1.71176 0.363845 2
    endloop
  endfacet
  facet normal 0.994522 -0.10453 0
    outer loop
      vertex -1.71176 0.363845 1
      vertex -1.75 0 2
      vertex -1.75 0 1
    endloop
  endfacet
  facet normal 0 -1 0
    outer loop
      vertex -0.182924 1.74041 1
      vertex 0.182924 1.74041 2
      vertex -0.182924 1.74041 2
    endloop
  endfacet
  facet normal 0 -1 -0
    outer loop
      vertex 0.182924 1.74041 2
      vertex -0.182924 1.74041 1
      vertex 0.182924 1.74041 1
    endloop
  endfacet
  facet normal 0 1 -0
    outer loop
      vertex 0.182924 -1.74041 1
      vertex -0.182924 -1.74041 2
      vertex 0.182924 -1.74041 2
    endloop
  endfacet
  facet normal 0 1 0
    outer loop
      vertex -0.182924 -1.74041 2
      vertex 0.182924 -1.74041 1
      vertex -0.182924 -1.74041 1
    endloop
  endfacet
  facet normal -0.587786 -0.809017 0
    outer loop
      vertex 0.875 1.51554 1
      vertex 1.17098 1.3005 2
      vertex 0.875 1.51554 2
    endloop
  endfacet
  facet normal -0.587786 -0.809017 -0
    outer loop
      vertex 1.17098 1.3005 2
      vertex 0.875 1.51554 1
      vertex 1.17098 1.3005 1
    endloop
  endfacet
  facet normal -0.406737 -0.913546 0
    outer loop
      vertex 0.540779 1.66435 1
      vertex 0.875 1.51554 2
      vertex 0.540779 1.66435 2
    endloop
  endfacet
  facet normal -0.406737 -0.913546 -0
    outer loop
      vertex 0.875 1.51554 2
      vertex 0.540779 1.66435 1
      vertex 0.875 1.51554 1
    endloop
  endfacet
  facet normal 0.587784 -0.809018 0
    outer loop
      vertex -1.17098 1.3005 1
      vertex -0.874999 1.51554 2
      vertex -1.17098 1.3005 2
    endloop
  endfacet
  facet normal 0.587784 -0.809018 0
    outer loop
      vertex -0.874999 1.51554 2
      vertex -1.17098 1.3005 1
      vertex -0.874999 1.51554 1
    endloop
  endfacet
  facet normal 0.207911 -0.978148 0
    outer loop
      vertex -0.540779 1.66435 1
      vertex -0.182924 1.74041 2
      vertex -0.540779 1.66435 2
    endloop
  endfacet
  facet normal 0.207911 -0.978148 0
    outer loop
      vertex -0.182924 1.74041 2
      vertex -0.540779 1.66435 1
      vertex -0.182924 1.74041 1
    endloop
  endfacet
  facet normal -0.866025 -0.5 0
    outer loop
      vertex 1.5987 0.711788 1
      vertex 1.41578 1.02862 2
      vertex 1.41578 1.02862 1
    endloop
  endfacet
  facet normal -0.866025 -0.5 0
    outer loop
      vertex 1.41578 1.02862 2
      vertex 1.5987 0.711788 1
      vertex 1.5987 0.711788 2
    endloop
  endfacet
  facet normal -0.951057 -0.309016 0
    outer loop
      vertex 1.71176 0.363845 1
      vertex 1.5987 0.711788 2
      vertex 1.5987 0.711788 1
    endloop
  endfacet
  facet normal -0.951057 -0.309016 0
    outer loop
      vertex 1.5987 0.711788 2
      vertex 1.71176 0.363845 1
      vertex 1.71176 0.363845 2
    endloop
  endfacet
  facet normal -0.743146 -0.66913 0
    outer loop
      vertex 1.41578 1.02862 1
      vertex 1.17098 1.3005 2
      vertex 1.17098 1.3005 1
    endloop
  endfacet
  facet normal -0.743146 -0.66913 0
    outer loop
      vertex 1.17098 1.3005 2
      vertex 1.41578 1.02862 1
      vertex 1.41578 1.02862 2
    endloop
  endfacet
  facet normal -0.207911 -0.978148 0
    outer loop
      vertex 0.182924 1.74041 1
      vertex 0.540779 1.66435 2
      vertex 0.182924 1.74041 2
    endloop
  endfacet
  facet normal -0.207911 -0.978148 -0
    outer loop
      vertex 0.540779 1.66435 2
      vertex 0.182924 1.74041 1
      vertex 0.540779 1.66435 1
    endloop
  endfacet
  facet normal 0.866025 -0.5 0
    outer loop
      vertex -1.5987 0.711788 2
      vertex -1.41578 1.02862 1
      vertex -1.41578 1.02862 2
    endloop
  endfacet
  facet normal 0.866025 -0.5 0
    outer loop
      vertex -1.41578 1.02862 1
      vertex -1.5987 0.711788 2
      vertex -1.5987 0.711788 1
    endloop
  endfacet
  facet normal 0.743146 -0.66913 0
    outer loop
      vertex -1.41578 1.02862 2
      vertex -1.17098 1.3005 1
      vertex -1.17098 1.3005 2
    endloop
  endfacet
  facet normal 0.743146 -0.66913 0
    outer loop
      vertex -1.17098 1.3005 1
      vertex -1.41578 1.02862 2
      vertex -1.41578 1.02862 1
    endloop
  endfacet
  facet normal 0.951057 -0.309016 0
    outer loop
      vertex -1.71176 0.363845 2
      vertex -1.5987 0.711788 1
      vertex -1.5987 0.711788 2
    endloop
  endfacet
  facet normal 0.951057 -0.309016 0
    outer loop
      vertex -1.5987 0.711788 1
      vertex -1.71176 0.363845 2
      vertex -1.71176 0.363845 1
    endloop
  endfacet
  facet normal 0.406737 -0.913545 0
    outer loop
      vertex -0.874999 1.51554 1
      vertex -0.540779 1.66435 2
      vertex -0.874999 1.51554 2
    endloop
  endfacet
  facet normal 0.406737 -0.913545 0
    outer loop
      vertex -0.540779 1.66435 2
      vertex -0.874999 1.51554 1
      vertex -0.540779 1.66435 1
    endloop
  endfacet
  facet normal -0.994522 0.10453 0
    outer loop
      vertex 1.71176 -0.363845 1
      vertex 1.75 0 2
      vertex 1.75 0 1
    endloop
  endfacet
  facet normal -0.994522 0.10453 0
    outer loop
      vertex 1.75 0 2
      vertex 1.71176 -0.363845 1
      vertex 1.71176 -0.363845 2
    endloop
  endfacet
  facet normal -0.207911 0.978148 0
    outer loop
      vertex 0.540779 -1.66435 1
      vertex 0.182924 -1.74041 2
      vertex 0.540779 -1.66435 2
    endloop
  endfacet
  facet normal -0.207911 0.978148 0
    outer loop
      vertex 0.182924 -1.74041 2
      vertex 0.540779 -1.66435 1
      vertex 0.182924 -1.74041 1
    endloop
  endfacet
  facet normal -0.743146 0.66913 0
    outer loop
      vertex 1.17098 -1.3005 1
      vertex 1.41578 -1.02862 2
      vertex 1.41578 -1.02862 1
    endloop
  endfacet
  facet normal -0.743146 0.66913 0
    outer loop
      vertex 1.41578 -1.02862 2
      vertex 1.17098 -1.3005 1
      vertex 1.17098 -1.3005 2
    endloop
  endfacet
  facet normal -0.951057 0.309016 0
    outer loop
      vertex 1.5987 -0.711788 1
      vertex 1.71176 -0.363845 2
      vertex 1.71176 -0.363845 1
    endloop
  endfacet
  facet normal -0.951057 0.309016 0
    outer loop
      vertex 1.71176 -0.363845 2
      vertex 1.5987 -0.711788 1
      vertex 1.5987 -0.711788 2
    endloop
  endfacet
  facet normal -0.866025 0.5 0
    outer loop
      vertex 1.41578 -1.02862 1
      vertex 1.5987 -0.711788 2
      vertex 1.5987 -0.711788 1
    endloop
  endfacet
  facet normal -0.866025 0.5 0
    outer loop
      vertex 1.5987 -0.711788 2
      vertex 1.41578 -1.02862 1
      vertex 1.41578 -1.02862 2
    endloop
  endfacet
  facet normal 0.587786 0.809017 -0
    outer loop
      vertex -0.875 -1.51554 1
      vertex -1.17098 -1.3005 2
      vertex -0.875 -1.51554 2
    endloop
  endfacet
  facet normal 0.587786 0.809017 0
    outer loop
      vertex -1.17098 -1.3005 2
      vertex -0.875 -1.51554 1
      vertex -1.17098 -1.3005 1
    endloop
  endfacet
  facet normal 0.866025 0.5 0
    outer loop
      vertex -1.41578 -1.02862 2
      vertex -1.5987 -0.711788 1
      vertex -1.5987 -0.711788 2
    endloop
  endfacet
  facet normal 0.866025 0.5 0
    outer loop
      vertex -1.5987 -0.711788 1
      vertex -1.41578 -1.02862 2
      vertex -1.41578 -1.02862 1
    endloop
  endfacet
  facet normal 0.994522 0.10453 0
    outer loop
      vertex -1.71176 -0.363845 2
      vertex -1.75 0 1
      vertex -1.75 0 2
    endloop
  endfacet
  facet normal 0.994522 0.10453 0
    outer loop
      vertex -1.75 0 1
      vertex -1.71176 -0.363845 2
      vertex -1.71176 -0.363845 1
    endloop
  endfacet
  facet normal -0.587786 0.809017 0
    outer loop
      vertex 1.17098 -1.3005 1
      vertex 0.875 -1.51554 2
      vertex 1.17098 -1.3005 2
    endloop
  endfacet
  facet normal -0.587786 0.809017 0
    outer loop
      vertex 0.875 -1.51554 2
      vertex 1.17098 -1.3005 1
      vertex 0.875 -1.51554 1
    endloop
  endfacet
  facet normal -0.406737 0.913546 0
    outer loop
      vertex 0.875 -1.51554 1
      vertex 0.540779 -1.66435 2
      vertex 0.875 -1.51554 2
    endloop
  endfacet
  facet normal -0.406737 0.913546 0
    outer loop
      vertex 0.540779 -1.66435 2
      vertex 0.875 -1.51554 1
      vertex 0.540779 -1.66435 1
    endloop
  endfacet
  facet normal 0.406737 0.913546 -0
    outer loop
      vertex -0.540779 -1.66435 1
      vertex -0.875 -1.51554 2
      vertex -0.540779 -1.66435 2
    endloop
  endfacet
  facet normal 0.406737 0.913546 0
    outer loop
      vertex -0.875 -1.51554 2
      vertex -0.540779 -1.66435 1
      vertex -0.875 -1.51554 1
    endloop
  endfacet
  facet normal 0.743146 0.66913 0
    outer loop
      vertex -1.17098 -1.3005 2
      vertex -1.41578 -1.02862 1
      vertex -1.41578 -1.02862 2
    endloop
  endfacet
  facet normal 0.743146 0.66913 0
    outer loop
      vertex -1.41578 -1.02862 1
      vertex -1.17098 -1.3005 2
      vertex -1.17098 -1.3005 1
    endloop
  endfacet
  facet normal 0.951057 0.309016 0
    outer loop
      vertex -1.5987 -0.711788 2
      vertex -1.71176 -0.363845 1
      vertex -1.71176 -0.363845 2
    endloop
  endfacet
  facet normal 0.951057 0.309016 0
    outer loop
      vertex -1.71176 -0.363845 1
      vertex -1.5987 -0.711788 2
      vertex -1.5987 -0.711788 1
    endloop
  endfacet
  facet normal 0.207911 0.978148 -0
    outer loop
      vertex -0.182924 -1.74041 1
      vertex -0.540779 -1.66435 2
      vertex -0.182924 -1.74041 2
    endloop
  endfacet
  facet normal 0.207911 0.978148 0
    outer loop
      vertex -0.540779 -1.66435 2
      vertex -0.182924 -1.74041 1
      vertex -0.540779 -1.66435 1
    endloop
  endfacet
  facet normal 0 -1 0
    outer loop
      vertex -0.261321 -3.01369 1
      vertex 0.261321 -3.01369 2
      vertex -0.261321 -3.01369 2
    endloop
  endfacet
  facet normal 0 -1 -0
    outer loop
      vertex 0.261321 -3.01369 2
      vertex -0.261321 -3.01369 1
      vertex 0.261321 -3.01369 1
    endloop
  endfacet
  facet normal -0.587786 -0.809017 0
    outer loop
      vertex 1.25 -3.33494 0
      vertex 1.67283 -3.64214 2
      vertex 1.25 -3.33494 2
    endloop
  endfacet
  facet normal -0.587786 -0.809017 -0
    outer loop
      vertex 1.67283 -3.64214 2
      vertex 1.25 -3.33494 0
      vertex 1.67283 -3.64214 0
    endloop
  endfacet
  facet normal 0.587785 -0.809017 0
    outer loop
      vertex -1.67283 -3.64214 0
      vertex -1.25 -3.33494 2
      vertex -1.67283 -3.64214 2
    endloop
  endfacet
  facet normal 0.587785 -0.809017 0
    outer loop
      vertex -1.25 -3.33494 2
      vertex -1.67283 -3.64214 0
      vertex -1.25 -3.33494 0
    endloop
  endfacet
  facet normal 0.207912 -0.978148 0
    outer loop
      vertex -0.772542 -3.12236 1
      vertex -0.261321 -3.01369 2
      vertex -0.772542 -3.12236 2
    endloop
  endfacet
  facet normal 0.207912 -0.978148 0
    outer loop
      vertex -0.261321 -3.01369 2
      vertex -0.772542 -3.12236 1
      vertex -0.261321 -3.01369 1
    endloop
  endfacet
  facet normal -0.866025 -0.5 0
    outer loop
      vertex 2.28386 -4.48316 0
      vertex 2.02254 -4.03054 2
      vertex 2.02254 -4.03054 0
    endloop
  endfacet
  facet normal -0.866025 -0.5 0
    outer loop
      vertex 2.02254 -4.03054 2
      vertex 2.28386 -4.48316 0
      vertex 2.28386 -4.48316 2
    endloop
  endfacet
  facet normal -0.951056 -0.309018 0
    outer loop
      vertex 2.33188 -4.63095 0
      vertex 2.28386 -4.48316 2
      vertex 2.28386 -4.48316 0
    endloop
  endfacet
  facet normal -0.951056 -0.309018 0
    outer loop
      vertex 2.28386 -4.48316 2
      vertex 2.33188 -4.63095 0
      vertex 2.33188 -4.63095 2
    endloop
  endfacet
  facet normal -0.743145 -0.669131 0
    outer loop
      vertex 2.02254 -4.03054 0
      vertex 1.67283 -3.64214 2
      vertex 1.67283 -3.64214 0
    endloop
  endfacet
  facet normal -0.743145 -0.669131 0
    outer loop
      vertex 1.67283 -3.64214 2
      vertex 2.02254 -4.03054 0
      vertex 2.02254 -4.03054 2
    endloop
  endfacet
  facet normal -0.207912 -0.978148 0
    outer loop
      vertex 0.261321 -3.01369 1
      vertex 0.772542 -3.12236 2
      vertex 0.261321 -3.01369 2
    endloop
  endfacet
  facet normal -0.207912 -0.978148 -0
    outer loop
      vertex 0.772542 -3.12236 2
      vertex 0.261321 -3.01369 1
      vertex 0.772542 -3.12236 1
    endloop
  endfacet
  facet normal -0.406739 -0.913544 0
    outer loop
      vertex 0.799659 -3.13443 1
      vertex 0.772542 -3.12236 2
      vertex 0.772542 -3.12236 1
    endloop
  endfacet
  facet normal -0.406736 -0.913546 8.70249e-008
    outer loop
      vertex 0.772542 -3.12236 2
      vertex 0.799659 -3.13443 1
      vertex 1.25 -3.33494 2
    endloop
  endfacet
  facet normal -0.406736 -0.913546 2.87464e-008
    outer loop
      vertex 1.05544 -3.24831 0.338084
      vertex 1.25 -3.33494 2
      vertex 0.799659 -3.13443 1
    endloop
  endfacet
  facet normal -0.406736 -0.913546 -1.5397e-007
    outer loop
      vertex 1.25 -3.33494 0
      vertex 1.05544 -3.24831 0.338084
      vertex 1.15877 -3.29432 0
    endloop
  endfacet
  facet normal -0.406736 -0.913546 0
    outer loop
      vertex 1.05544 -3.24831 0.338084
      vertex 1.25 -3.33494 0
      vertex 1.25 -3.33494 2
    endloop
  endfacet
  facet normal 0.866025 -0.5 0
    outer loop
      vertex -2.28386 -4.48316 2
      vertex -2.02254 -4.03054 0
      vertex -2.02254 -4.03054 2
    endloop
  endfacet
  facet normal 0.866025 -0.5 0
    outer loop
      vertex -2.02254 -4.03054 0
      vertex -2.28386 -4.48316 2
      vertex -2.28386 -4.48316 0
    endloop
  endfacet
  facet normal 0.743145 -0.669131 0
    outer loop
      vertex -2.02254 -4.03054 2
      vertex -1.67283 -3.64214 0
      vertex -1.67283 -3.64214 2
    endloop
  endfacet
  facet normal 0.743145 -0.669131 0
    outer loop
      vertex -1.67283 -3.64214 0
      vertex -2.02254 -4.03054 2
      vertex -2.02254 -4.03054 0
    endloop
  endfacet
  facet normal 0.951056 -0.309018 0
    outer loop
      vertex -2.33188 -4.63095 2
      vertex -2.28386 -4.48316 0
      vertex -2.28386 -4.48316 2
    endloop
  endfacet
  facet normal 0.951056 -0.309018 0
    outer loop
      vertex -2.28386 -4.48316 0
      vertex -2.33188 -4.63095 2
      vertex -2.33188 -4.63095 0
    endloop
  endfacet
  facet normal 0.406737 -0.913545 8.92377e-008
    outer loop
      vertex -1.25 -3.33494 2
      vertex -0.799659 -3.13443 1
      vertex -0.772542 -3.12236 2
    endloop
  endfacet
  facet normal 0.406737 -0.913545 1.81915e-008
    outer loop
      vertex -1.25 -3.33494 2
      vertex -1.05544 -3.24831 0.338083
      vertex -0.799659 -3.13443 1
    endloop
  endfacet
  facet normal 0.406737 -0.913545 0
    outer loop
      vertex -1.25 -3.33494 0
      vertex -1.05544 -3.24831 0.338083
      vertex -1.25 -3.33494 2
    endloop
  endfacet
  facet normal 0.406736 -0.913546 1.93769e-007
    outer loop
      vertex -1.05544 -3.24831 0.338083
      vertex -1.25 -3.33494 0
      vertex -1.15877 -3.29432 0
    endloop
  endfacet
  facet normal 0.40674 -0.913544 0
    outer loop
      vertex -0.772542 -3.12236 2
      vertex -0.799659 -3.13443 1
      vertex -0.772542 -3.12236 1
    endloop
  endfacet
  facet normal -0.994522 -0.104529 0
    outer loop
      vertex 2.97316 -6.24466 0
      vertex 2.93444 -5.87626 2
      vertex 2.93444 -5.87626 0
    endloop
  endfacet
  facet normal -0.994522 -0.104529 0
    outer loop
      vertex 2.93444 -5.87626 2
      vertex 2.97316 -6.24466 0
      vertex 2.97316 -6.24466 2
    endloop
  endfacet
  facet normal 0.994522 -0.104529 0
    outer loop
      vertex -2.97316 -6.24466 2
      vertex -2.93444 -5.87626 0
      vertex -2.93444 -5.87626 2
    endloop
  endfacet
  facet normal 0.994522 -0.104529 0
    outer loop
      vertex -2.93444 -5.87626 0
      vertex -2.97316 -6.24466 2
      vertex -2.97316 -6.24466 0
    endloop
  endfacet
  facet normal 0.743145 -0.66913 0
    outer loop
      vertex -2.42705 -4.73664 2
      vertex -2.33188 -4.63095 0
      vertex -2.33188 -4.63095 2
    endloop
  endfacet
  facet normal 0.743145 -0.66913 0
    outer loop
      vertex -2.33188 -4.63095 0
      vertex -2.42705 -4.73664 2
      vertex -2.42705 -4.73664 0
    endloop
  endfacet
  facet normal -0.866026 -0.5 0
    outer loop
      vertex 2.74064 -5.27979 0
      vertex 2.42705 -4.73664 2
      vertex 2.42705 -4.73664 0
    endloop
  endfacet
  facet normal -0.866026 -0.5 0
    outer loop
      vertex 2.42705 -4.73664 2
      vertex 2.74064 -5.27979 0
      vertex 2.74064 -5.27979 2
    endloop
  endfacet
  facet normal -0.951056 -0.309017 0
    outer loop
      vertex 2.93444 -5.87626 0
      vertex 2.74064 -5.27979 2
      vertex 2.74064 -5.27979 0
    endloop
  endfacet
  facet normal -0.951056 -0.309017 0
    outer loop
      vertex 2.74064 -5.27979 2
      vertex 2.93444 -5.87626 0
      vertex 2.93444 -5.87626 2
    endloop
  endfacet
  facet normal -0.743145 -0.66913 0
    outer loop
      vertex 2.42705 -4.73664 0
      vertex 2.33188 -4.63095 2
      vertex 2.33188 -4.63095 0
    endloop
  endfacet
  facet normal -0.743145 -0.66913 0
    outer loop
      vertex 2.33188 -4.63095 2
      vertex 2.42705 -4.73664 0
      vertex 2.42705 -4.73664 2
    endloop
  endfacet
  facet normal 0.866026 -0.5 0
    outer loop
      vertex -2.74064 -5.27979 2
      vertex -2.42705 -4.73664 0
      vertex -2.42705 -4.73664 2
    endloop
  endfacet
  facet normal 0.866026 -0.5 0
    outer loop
      vertex -2.42705 -4.73664 0
      vertex -2.74064 -5.27979 2
      vertex -2.74064 -5.27979 0
    endloop
  endfacet
  facet normal 0.951056 -0.309017 0
    outer loop
      vertex -2.93444 -5.87626 2
      vertex -2.74064 -5.27979 0
      vertex -2.74064 -5.27979 2
    endloop
  endfacet
  facet normal 0.951056 -0.309017 0
    outer loop
      vertex -2.74064 -5.27979 0
      vertex -2.93444 -5.87626 2
      vertex -2.93444 -5.87626 0
    endloop
  endfacet
endsolid OpenSCAD_Model
