solid OpenSCAD_Model
  facet normal -0.316228 -0.948683 0
    outer loop
      vertex -4.89277 5.14277 0
      vertex -2.64277 4.39277 4
      vertex -4.89277 5.14277 4
    endloop
  endfacet
  facet normal -0.316228 -0.948683 -0
    outer loop
      vertex -2.64277 4.39277 4
      vertex -4.89277 5.14277 0
      vertex -2.64277 4.39277 0
    endloop
  endfacet
  facet normal 0.316228 0.948683 -0
    outer loop
      vertex -1.76777 1.76777 0
      vertex -4.01777 2.51777 4
      vertex -1.76777 1.76777 4
    endloop
  endfacet
  facet normal 0.316228 0.948683 0
    outer loop
      vertex -4.01777 2.51777 4
      vertex -1.76777 1.76777 0
      vertex -4.01777 2.51777 0
    endloop
  endfacet
  facet normal -0.948683 -0.316228 0
    outer loop
      vertex -1.76777 1.76777 0
      vertex -2.64277 4.39277 4
      vertex -2.64277 4.39277 0
    endloop
  endfacet
  facet normal -0.948683 -0.316228 0
    outer loop
      vertex -2.64277 4.39277 4
      vertex -1.76777 1.76777 0
      vertex -1.76777 1.76777 4
    endloop
  endfacet
  facet normal 0 0 1
    outer loop
      vertex -2.64277 4.39277 0
      vertex -4.01777 2.51777 0
      vertex -1.76777 1.76777 0
    endloop
  endfacet
  facet normal 0 -0 1
    outer loop
      vertex -4.01777 2.51777 0
      vertex -2.64277 4.39277 0
      vertex -4.89277 5.14277 0
    endloop
  endfacet
  facet normal 0.948683 0.316228 0
    outer loop
      vertex -4.01777 2.51777 4
      vertex -4.89277 5.14277 0
      vertex -4.89277 5.14277 4
    endloop
  endfacet
  facet normal 0.948683 0.316228 0
    outer loop
      vertex -4.89277 5.14277 0
      vertex -4.01777 2.51777 4
      vertex -4.01777 2.51777 0
    endloop
  endfacet
  facet normal 0.948683 -0.316228 0
    outer loop
      vertex -5.14277 -4.89277 4
      vertex -4.39277 -2.64277 0
      vertex -4.39277 -2.64277 4
    endloop
  endfacet
  facet normal 0.948683 -0.316228 0
    outer loop
      vertex -4.39277 -2.64277 0
      vertex -5.14277 -4.89277 4
      vertex -5.14277 -4.89277 0
    endloop
  endfacet
  facet normal 0.316228 -0.948683 0
    outer loop
      vertex -4.39277 -2.64277 0
      vertex -1.76777 -1.76777 4
      vertex -4.39277 -2.64277 4
    endloop
  endfacet
  facet normal 0.316228 -0.948683 0
    outer loop
      vertex -1.76777 -1.76777 4
      vertex -4.39277 -2.64277 0
      vertex -1.76777 -1.76777 0
    endloop
  endfacet
  facet normal -0.948683 0.316228 0
    outer loop
      vertex -2.51777 -4.01777 0
      vertex -1.76777 -1.76777 4
      vertex -1.76777 -1.76777 0
    endloop
  endfacet
  facet normal -0.948683 0.316228 0
    outer loop
      vertex -1.76777 -1.76777 4
      vertex -2.51777 -4.01777 0
      vertex -2.51777 -4.01777 4
    endloop
  endfacet
  facet normal -0 0 1
    outer loop
      vertex -4.39277 -2.64277 0
      vertex -2.51777 -4.01777 0
      vertex -1.76777 -1.76777 0
    endloop
  endfacet
  facet normal 0 0 1
    outer loop
      vertex -2.51777 -4.01777 0
      vertex -4.39277 -2.64277 0
      vertex -5.14277 -4.89277 0
    endloop
  endfacet
  facet normal -0.316228 0.948683 0
    outer loop
      vertex -2.51777 -4.01777 0
      vertex -5.14277 -4.89277 4
      vertex -2.51777 -4.01777 4
    endloop
  endfacet
  facet normal -0.316228 0.948683 0
    outer loop
      vertex -5.14277 -4.89277 4
      vertex -2.51777 -4.01777 0
      vertex -5.14277 -4.89277 0
    endloop
  endfacet
  facet normal -0.316228 -0.948683 0
    outer loop
      vertex 1.76777 -1.76777 0
      vertex 4.01777 -2.51777 4
      vertex 1.76777 -1.76777 4
    endloop
  endfacet
  facet normal -0.316228 -0.948683 -0
    outer loop
      vertex 4.01777 -2.51777 4
      vertex 1.76777 -1.76777 0
      vertex 4.01777 -2.51777 0
    endloop
  endfacet
  facet normal 0.316228 0.948683 -0
    outer loop
      vertex 4.89277 -5.14277 0
      vertex 2.64277 -4.39277 4
      vertex 4.89277 -5.14277 4
    endloop
  endfacet
  facet normal 0.316228 0.948683 0
    outer loop
      vertex 2.64277 -4.39277 4
      vertex 4.89277 -5.14277 0
      vertex 2.64277 -4.39277 0
    endloop
  endfacet
  facet normal -0.948683 -0.316228 0
    outer loop
      vertex 4.89277 -5.14277 0
      vertex 4.01777 -2.51777 4
      vertex 4.01777 -2.51777 0
    endloop
  endfacet
  facet normal -0.948683 -0.316228 0
    outer loop
      vertex 4.01777 -2.51777 4
      vertex 4.89277 -5.14277 0
      vertex 4.89277 -5.14277 4
    endloop
  endfacet
  facet normal 0 0 1
    outer loop
      vertex 4.01777 -2.51777 0
      vertex 2.64277 -4.39277 0
      vertex 4.89277 -5.14277 0
    endloop
  endfacet
  facet normal 0 -0 1
    outer loop
      vertex 2.64277 -4.39277 0
      vertex 4.01777 -2.51777 0
      vertex 1.76777 -1.76777 0
    endloop
  endfacet
  facet normal 0.948683 0.316228 0
    outer loop
      vertex 2.64277 -4.39277 4
      vertex 1.76777 -1.76777 0
      vertex 1.76777 -1.76777 4
    endloop
  endfacet
  facet normal 0.948683 0.316228 0
    outer loop
      vertex 1.76777 -1.76777 0
      vertex 2.64277 -4.39277 4
      vertex 2.64277 -4.39277 0
    endloop
  endfacet
  facet normal 0.948683 -0.316228 0
    outer loop
      vertex 1.76777 1.76777 4
      vertex 2.51777 4.01777 0
      vertex 2.51777 4.01777 4
    endloop
  endfacet
  facet normal 0.948683 -0.316228 0
    outer loop
      vertex 2.51777 4.01777 0
      vertex 1.76777 1.76777 4
      vertex 1.76777 1.76777 0
    endloop
  endfacet
  facet normal -0.948683 0.316228 0
    outer loop
      vertex 4.39277 2.64277 0
      vertex 5.14277 4.89277 4
      vertex 5.14277 4.89277 0
    endloop
  endfacet
  facet normal -0.948683 0.316228 0
    outer loop
      vertex 5.14277 4.89277 4
      vertex 4.39277 2.64277 0
      vertex 4.39277 2.64277 4
    endloop
  endfacet
  facet normal 0.316228 -0.948683 0
    outer loop
      vertex 2.51777 4.01777 0
      vertex 5.14277 4.89277 4
      vertex 2.51777 4.01777 4
    endloop
  endfacet
  facet normal 0.316228 -0.948683 0
    outer loop
      vertex 5.14277 4.89277 4
      vertex 2.51777 4.01777 0
      vertex 5.14277 4.89277 0
    endloop
  endfacet
  facet normal -0 0 1
    outer loop
      vertex 2.51777 4.01777 0
      vertex 4.39277 2.64277 0
      vertex 5.14277 4.89277 0
    endloop
  endfacet
  facet normal 0 0 1
    outer loop
      vertex 4.39277 2.64277 0
      vertex 2.51777 4.01777 0
      vertex 1.76777 1.76777 0
    endloop
  endfacet
  facet normal -0.316228 0.948683 0
    outer loop
      vertex 4.39277 2.64277 0
      vertex 1.76777 1.76777 4
      vertex 4.39277 2.64277 4
    endloop
  endfacet
  facet normal -0.316228 0.948683 0
    outer loop
      vertex 1.76777 1.76777 4
      vertex 4.39277 2.64277 0
      vertex 1.76777 1.76777 0
    endloop
  endfacet
  facet normal 0.45399 -0.891007 0
    outer loop
      vertex 4.92705 -6.85316 0
      vertex 5.76335 -6.42705 4
      vertex 4.92705 -6.85316 4
    endloop
  endfacet
  facet normal 0.45399 -0.891007 0
    outer loop
      vertex 5.76335 -6.42705 4
      vertex 4.92705 -6.85316 0
      vertex 5.76335 -6.42705 0
    endloop
  endfacet
  facet normal 0.15644 -0.987687 0
    outer loop
      vertex 4 -7 0
      vertex 4.92705 -6.85316 4
      vertex 4 -7 4
    endloop
  endfacet
  facet normal 0.15644 -0.987687 0
    outer loop
      vertex 4.92705 -6.85316 4
      vertex 4 -7 0
      vertex 4.92705 -6.85316 0
    endloop
  endfacet
  facet normal 0.135791 -0.857318 -0.496555
    outer loop
      vertex 4.42705 -6.35316 -1
      vertex 4 -7 0
      vertex 3.5 -6.5 -1
    endloop
  endfacet
  facet normal 0.135791 -0.857318 -0.496555
    outer loop
      vertex 4 -7 0
      vertex 4.42705 -6.35316 -1
      vertex 4.92705 -6.85316 0
    endloop
  endfacet
  facet normal 0.376725 -0.739367 -0.558046
    outer loop
      vertex 5.26335 -5.92705 -1
      vertex 4.92705 -6.85316 0
      vertex 4.42705 -6.35316 -1
    endloop
  endfacet
  facet normal 0.376725 -0.739367 -0.558046
    outer loop
      vertex 4.92705 -6.85316 0
      vertex 5.26335 -5.92705 -1
      vertex 5.76335 -6.42705 0
    endloop
  endfacet
  facet normal 0.707107 -0.707107 0
    outer loop
      vertex 5.76335 -6.42705 4
      vertex 6.42705 -5.76335 0
      vertex 6.42705 -5.76335 4
    endloop
  endfacet
  facet normal 0.707107 -0.707107 0
    outer loop
      vertex 6.42705 -5.76335 0
      vertex 5.76335 -6.42705 4
      vertex 5.76335 -6.42705 0
    endloop
  endfacet
  facet normal 0.891007 0.45399 0
    outer loop
      vertex 6.85316 4.92705 4
      vertex 6.42705 5.76335 0
      vertex 6.42705 5.76335 4
    endloop
  endfacet
  facet normal 0.891007 0.45399 0
    outer loop
      vertex 6.42705 5.76335 0
      vertex 6.85316 4.92705 4
      vertex 6.85316 4.92705 0
    endloop
  endfacet
  facet normal -0.135791 0.857318 -0.496555
    outer loop
      vertex -4.42705 6.35316 -1
      vertex -4 7 0
      vertex -3.5 6.5 -1
    endloop
  endfacet
  facet normal -0.135791 0.857318 -0.496555
    outer loop
      vertex -4 7 0
      vertex -4.42705 6.35316 -1
      vertex -4.92705 6.85316 0
    endloop
  endfacet
  facet normal 0 0 -1
    outer loop
      vertex 3.5 -6.5 -1
      vertex 6.5 -3.5 -1
      vertex 6.35316 -4.42705 -1
    endloop
  endfacet
  facet normal 0 0 -1
    outer loop
      vertex 6.5 -3.5 -1
      vertex 6.11832 -1.21352 -1
      vertex 6.5 -1.408 -1
    endloop
  endfacet
  facet normal 0 0 -1
    outer loop
      vertex 3.5 -6.5 -1
      vertex 6.35316 -4.42705 -1
      vertex 5.92705 -5.26335 -1
    endloop
  endfacet
  facet normal 0 0 -1
    outer loop
      vertex 6.5 -3.5 -1
      vertex 5.78647 -0.881678 -1
      vertex 6.11832 -1.21352 -1
    endloop
  endfacet
  facet normal 0 0 -1
    outer loop
      vertex 6.5 -3.5 -1
      vertex 1.21352 -0.881678 -1
      vertex 5.78647 -0.881678 -1
    endloop
  endfacet
  facet normal 0 0 -1
    outer loop
      vertex 5.78647 -0.881678 -1
      vertex 1.21352 -0.881678 -1
      vertex 5.57341 -0.463525 -1
    endloop
  endfacet
  facet normal 0 0 -1
    outer loop
      vertex 3.5 -6.5 -1
      vertex 5.92705 -5.26335 -1
      vertex 5.26335 -5.92705 -1
    endloop
  endfacet
  facet normal 0 0 -1
    outer loop
      vertex 6.11832 1.21352 -1
      vertex 6.5 3.5 -1
      vertex 6.5 1.408 -1
    endloop
  endfacet
  facet normal 0 0 -1
    outer loop
      vertex 5.78647 0.881678 -1
      vertex 6.5 3.5 -1
      vertex 6.11832 1.21352 -1
    endloop
  endfacet
  facet normal 0 0 -1
    outer loop
      vertex 1.21352 0.881678 -1
      vertex 6.5 3.5 -1
      vertex 5.78647 0.881678 -1
    endloop
  endfacet
  facet normal 0 -0 -1
    outer loop
      vertex 3.5 6.5 -1
      vertex 6.5 3.5 -1
      vertex 1.21352 0.881678 -1
    endloop
  endfacet
  facet normal 0 0 -1
    outer loop
      vertex 1.21352 0.881678 -1
      vertex 5.78647 0.881678 -1
      vertex 5.57341 0.463525 -1
    endloop
  endfacet
  facet normal 0 0 -1
    outer loop
      vertex 1.42658 0.463525 -1
      vertex 5.57341 0.463525 -1
      vertex 5.5 0 -1
    endloop
  endfacet
  facet normal 0 0 -1
    outer loop
      vertex 6.5 3.5 -1
      vertex 3.5 6.5 -1
      vertex 6.35316 4.42705 -1
    endloop
  endfacet
  facet normal 0 -0 -1
    outer loop
      vertex 1.42658 -0.463525 -1
      vertex 5.57341 -0.463525 -1
      vertex 1.21352 -0.881678 -1
    endloop
  endfacet
  facet normal 0 0 -1
    outer loop
      vertex 3.5 -6.5 -1
      vertex 5.26335 -5.92705 -1
      vertex 4.42705 -6.35316 -1
    endloop
  endfacet
  facet normal 0 0 -1
    outer loop
      vertex 1.42658 0.463525 -1
      vertex 5.5 0 -1
      vertex 1.5 0 -1
    endloop
  endfacet
  facet normal -0 0 -1
    outer loop
      vertex 6.5 -3.5 -1
      vertex 3.5 -6.5 -1
      vertex 1.21352 -0.881678 -1
    endloop
  endfacet
  facet normal 0 0 -1
    outer loop
      vertex 5.57341 0.463525 -1
      vertex 1.42658 0.463525 -1
      vertex 1.21352 0.881678 -1
    endloop
  endfacet
  facet normal 0 0 -1
    outer loop
      vertex 6.35316 4.42705 -1
      vertex 3.5 6.5 -1
      vertex 5.92705 5.26335 -1
    endloop
  endfacet
  facet normal -0 0 -1
    outer loop
      vertex 5.5 0 -1
      vertex 1.42658 -0.463525 -1
      vertex 1.5 0 -1
    endloop
  endfacet
  facet normal 0 0 -1
    outer loop
      vertex 5.57341 -0.463525 -1
      vertex 1.42658 -0.463525 -1
      vertex 5.5 0 -1
    endloop
  endfacet
  facet normal 0 0 -1
    outer loop
      vertex 3.5 -6.5 -1
      vertex 0.881678 -1.21352 -1
      vertex 1.21352 -0.881678 -1
    endloop
  endfacet
  facet normal 0 0 -1
    outer loop
      vertex 3.5 -6.5 -1
      vertex 0.463525 -1.42658 -1
      vertex 0.881678 -1.21352 -1
    endloop
  endfacet
  facet normal 0 0 -1
    outer loop
      vertex 3.5 -6.5 -1
      vertex 0 -1.5 -1
      vertex 0.463525 -1.42658 -1
    endloop
  endfacet
  facet normal 0 0 -1
    outer loop
      vertex -3.5 -6.5 -1
      vertex 0 -1.5 -1
      vertex 3.5 -6.5 -1
    endloop
  endfacet
  facet normal -0 0 -1
    outer loop
      vertex 0 -1.5 -1
      vertex -3.5 -6.5 -1
      vertex -0.463525 -1.42658 -1
    endloop
  endfacet
  facet normal -0 0 -1
    outer loop
      vertex -0.463525 -1.42658 -1
      vertex -3.5 -6.5 -1
      vertex -0.881678 -1.21352 -1
    endloop
  endfacet
  facet normal -0 0 -1
    outer loop
      vertex -1.21352 -0.881678 -1
      vertex -6.5 -3.5 -1
      vertex -1.42658 -0.463525 -1
    endloop
  endfacet
  facet normal 0 0 -1
    outer loop
      vertex -6.5 -3.5 -1
      vertex -1.21352 -0.881678 -1
      vertex -3.5 -6.5 -1
    endloop
  endfacet
  facet normal -0 0 -1
    outer loop
      vertex -0.881678 -1.21352 -1
      vertex -3.5 -6.5 -1
      vertex -1.21352 -0.881678 -1
    endloop
  endfacet
  facet normal 0 0 -1
    outer loop
      vertex 5.92705 5.26335 -1
      vertex 3.5 6.5 -1
      vertex 5.26335 5.92705 -1
    endloop
  endfacet
  facet normal 0 0 -1
    outer loop
      vertex 5.26335 5.92705 -1
      vertex 3.5 6.5 -1
      vertex 4.42705 6.35316 -1
    endloop
  endfacet
  facet normal 0 0 -1
    outer loop
      vertex 0.881678 1.21352 -1
      vertex 3.5 6.5 -1
      vertex 1.21352 0.881678 -1
    endloop
  endfacet
  facet normal 0 0 -1
    outer loop
      vertex 0.463525 1.42658 -1
      vertex 3.5 6.5 -1
      vertex 0.881678 1.21352 -1
    endloop
  endfacet
  facet normal 0 0 -1
    outer loop
      vertex 0 1.5 -1
      vertex 3.5 6.5 -1
      vertex 0.463525 1.42658 -1
    endloop
  endfacet
  facet normal 0 0 -1
    outer loop
      vertex -3.5 6.5 -1
      vertex 0 1.5 -1
      vertex -0.463525 1.42658 -1
    endloop
  endfacet
  facet normal 0 0 -1
    outer loop
      vertex -3.5 6.5 -1
      vertex -0.463525 1.42658 -1
      vertex -0.881678 1.21352 -1
    endloop
  endfacet
  facet normal 0 0 -1
    outer loop
      vertex -3.5 6.5 -1
      vertex -0.881678 1.21352 -1
      vertex -1.21352 0.881678 -1
    endloop
  endfacet
  facet normal -0 0 -1
    outer loop
      vertex -1.42658 -0.463525 -1
      vertex -6.5 -3.5 -1
      vertex -1.5 0 -1
    endloop
  endfacet
  facet normal 0 0 -1
    outer loop
      vertex 0 1.5 -1
      vertex -3.5 6.5 -1
      vertex 3.5 6.5 -1
    endloop
  endfacet
  facet normal 0 0 -1
    outer loop
      vertex -6.5 3.5 -1
      vertex -1.21352 0.881678 -1
      vertex -1.42658 0.463525 -1
    endloop
  endfacet
  facet normal 0 0 -1
    outer loop
      vertex -6.5 3.5 -1
      vertex -1.5 0 -1
      vertex -6.5 -3.5 -1
    endloop
  endfacet
  facet normal 0 0 -1
    outer loop
      vertex -6.5 -3.5 -1
      vertex -3.5 -6.5 -1
      vertex -4.42705 -6.35316 -1
    endloop
  endfacet
  facet normal 0 0 -1
    outer loop
      vertex -1.5 0 -1
      vertex -6.5 3.5 -1
      vertex -1.42658 0.463525 -1
    endloop
  endfacet
  facet normal 0 0 -1
    outer loop
      vertex -6.5 -3.5 -1
      vertex -4.42705 -6.35316 -1
      vertex -5.26335 -5.92705 -1
    endloop
  endfacet
  facet normal 0 0 -1
    outer loop
      vertex -1.21352 0.881678 -1
      vertex -6.5 3.5 -1
      vertex -3.5 6.5 -1
    endloop
  endfacet
  facet normal 0 0 -1
    outer loop
      vertex -6.5 -3.5 -1
      vertex -5.26335 -5.92705 -1
      vertex -5.92705 -5.26335 -1
    endloop
  endfacet
  facet normal 0 0 -1
    outer loop
      vertex -3.5 6.5 -1
      vertex -6.5 3.5 -1
      vertex -4.42705 6.35316 -1
    endloop
  endfacet
  facet normal 0 0 -1
    outer loop
      vertex -6.5 -3.5 -1
      vertex -5.92705 -5.26335 -1
      vertex -6.35316 -4.42705 -1
    endloop
  endfacet
  facet normal 0 0 -1
    outer loop
      vertex -4.42705 6.35316 -1
      vertex -6.5 3.5 -1
      vertex -5.26335 5.92705 -1
    endloop
  endfacet
  facet normal 0 0 -1
    outer loop
      vertex -5.26335 5.92705 -1
      vertex -6.5 3.5 -1
      vertex -5.92705 5.26335 -1
    endloop
  endfacet
  facet normal 0 0 -1
    outer loop
      vertex -5.92705 5.26335 -1
      vertex -6.5 3.5 -1
      vertex -6.35316 4.42705 -1
    endloop
  endfacet
  facet normal 1 -0 0
    outer loop
      vertex 7 -4 4
      vertex 7 -1.5 0
      vertex 7 -1.5 4
    endloop
  endfacet
  facet normal 1 0 0
    outer loop
      vertex 7 -1.5 0
      vertex 7 -4 4
      vertex 7 -4 0
    endloop
  endfacet
  facet normal 1 -0 0
    outer loop
      vertex 7 1.5 4
      vertex 7 4 0
      vertex 7 4 4
    endloop
  endfacet
  facet normal 1 0 0
    outer loop
      vertex 7 4 0
      vertex 7 1.5 4
      vertex 7 1.5 0
    endloop
  endfacet
  facet normal 0.57735 0.57735 -0.57735
    outer loop
      vertex 6.42705 5.76335 0
      vertex 5.26335 5.92705 -1
      vertex 5.76335 6.42705 0
    endloop
  endfacet
  facet normal 0.57735 0.57735 -0.57735
    outer loop
      vertex 5.26335 5.92705 -1
      vertex 6.42705 5.76335 0
      vertex 5.92705 5.26335 -1
    endloop
  endfacet
  facet normal -0.135791 -0.857318 -0.496555
    outer loop
      vertex -4.42705 -6.35316 -1
      vertex -4 -7 0
      vertex -4.92705 -6.85316 0
    endloop
  endfacet
  facet normal -0.135791 -0.857318 -0.496555
    outer loop
      vertex -4 -7 0
      vertex -4.42705 -6.35316 -1
      vertex -3.5 -6.5 -1
    endloop
  endfacet
  facet normal 0 -0.894427 -0.447214
    outer loop
      vertex -3.5 -6.5 -1
      vertex 4 -7 0
      vertex -4 -7 0
    endloop
  endfacet
  facet normal 0 -0.894427 -0.447214
    outer loop
      vertex 4 -7 0
      vertex -3.5 -6.5 -1
      vertex 3.5 -6.5 -1
    endloop
  endfacet
  facet normal 0 -1 0
    outer loop
      vertex -4 -7 0
      vertex 4 -7 4
      vertex -4 -7 4
    endloop
  endfacet
  facet normal 0 -1 -0
    outer loop
      vertex 4 -7 4
      vertex -4 -7 0
      vertex 4 -7 0
    endloop
  endfacet
  facet normal 0.987687 -0.15644 0
    outer loop
      vertex 6.85316 -4.92705 4
      vertex 7 -4 0
      vertex 7 -4 4
    endloop
  endfacet
  facet normal 0.987687 -0.15644 0
    outer loop
      vertex 7 -4 0
      vertex 6.85316 -4.92705 4
      vertex 6.85316 -4.92705 0
    endloop
  endfacet
  facet normal 0 1 -0
    outer loop
      vertex 4 7 0
      vertex -4 7 4
      vertex 4 7 4
    endloop
  endfacet
  facet normal 0 1 0
    outer loop
      vertex -4 7 4
      vertex 4 7 0
      vertex -4 7 0
    endloop
  endfacet
  facet normal 0.857318 0.135791 -0.496555
    outer loop
      vertex 7 4 0
      vertex 6.35316 4.42705 -1
      vertex 6.85316 4.92705 0
    endloop
  endfacet
  facet normal 0.857318 0.135791 -0.496555
    outer loop
      vertex 6.35316 4.42705 -1
      vertex 7 4 0
      vertex 6.5 3.5 -1
    endloop
  endfacet
  facet normal -0.57735 0.57735 -0.57735
    outer loop
      vertex -5.26335 5.92705 -1
      vertex -6.42705 5.76335 0
      vertex -5.76335 6.42705 0
    endloop
  endfacet
  facet normal -0.57735 0.57735 -0.57735
    outer loop
      vertex -6.42705 5.76335 0
      vertex -5.26335 5.92705 -1
      vertex -5.92705 5.26335 -1
    endloop
  endfacet
  facet normal 0.891007 -0.45399 0
    outer loop
      vertex 6.42705 -5.76335 4
      vertex 6.85316 -4.92705 0
      vertex 6.85316 -4.92705 4
    endloop
  endfacet
  facet normal 0.891007 -0.45399 0
    outer loop
      vertex 6.85316 -4.92705 0
      vertex 6.42705 -5.76335 4
      vertex 6.42705 -5.76335 0
    endloop
  endfacet
  facet normal -0.739367 -0.376725 -0.558046
    outer loop
      vertex -5.92705 -5.26335 -1
      vertex -6.85316 -4.92705 0
      vertex -6.35316 -4.42705 -1
    endloop
  endfacet
  facet normal -0.739367 -0.376725 -0.558046
    outer loop
      vertex -6.85316 -4.92705 0
      vertex -5.92705 -5.26335 -1
      vertex -6.42705 -5.76335 0
    endloop
  endfacet
  facet normal -0.57735 -0.57735 -0.57735
    outer loop
      vertex -5.26335 -5.92705 -1
      vertex -6.42705 -5.76335 0
      vertex -5.92705 -5.26335 -1
    endloop
  endfacet
  facet normal -0.57735 -0.57735 -0.57735
    outer loop
      vertex -6.42705 -5.76335 0
      vertex -5.26335 -5.92705 -1
      vertex -5.76335 -6.42705 0
    endloop
  endfacet
  facet normal 0.894427 0 -0.447214
    outer loop
      vertex 7 1.5 0
      vertex 6.5 3.5 -1
      vertex 7 4 0
    endloop
  endfacet
  facet normal 0.894427 0 -0.447214
    outer loop
      vertex 6.53647 1.42658 -0.927052
      vertex 6.5 3.5 -1
      vertex 7 1.5 0
    endloop
  endfacet
  facet normal 0.894427 0 -0.447214
    outer loop
      vertex 6.5 3.5 -1
      vertex 6.53647 1.42658 -0.927052
      vertex 6.5 1.408 -1
    endloop
  endfacet
  facet normal 0.894427 0 -0.447214
    outer loop
      vertex 6.53647 -1.42658 -0.927052
      vertex 6.5 -3.5 -1
      vertex 6.5 -1.408 -1
    endloop
  endfacet
  facet normal 0.894427 0 -0.447214
    outer loop
      vertex 7 -1.5 0
      vertex 6.5 -3.5 -1
      vertex 6.53647 -1.42658 -0.927052
    endloop
  endfacet
  facet normal 0.894427 0 -0.447214
    outer loop
      vertex 6.5 -3.5 -1
      vertex 7 -1.5 0
      vertex 7 -4 0
    endloop
  endfacet
  facet normal 0.857318 -0.135791 -0.496555
    outer loop
      vertex 7 -4 0
      vertex 6.35316 -4.42705 -1
      vertex 6.5 -3.5 -1
    endloop
  endfacet
  facet normal 0.857318 -0.135791 -0.496555
    outer loop
      vertex 6.35316 -4.42705 -1
      vertex 7 -4 0
      vertex 6.85316 -4.92705 0
    endloop
  endfacet
  facet normal 0.739367 -0.376725 -0.558046
    outer loop
      vertex 6.85316 -4.92705 0
      vertex 5.92705 -5.26335 -1
      vertex 6.35316 -4.42705 -1
    endloop
  endfacet
  facet normal 0.739367 -0.376725 -0.558046
    outer loop
      vertex 5.92705 -5.26335 -1
      vertex 6.85316 -4.92705 0
      vertex 6.42705 -5.76335 0
    endloop
  endfacet
  facet normal 0.57735 -0.57735 -0.57735
    outer loop
      vertex 6.42705 -5.76335 0
      vertex 5.26335 -5.92705 -1
      vertex 5.92705 -5.26335 -1
    endloop
  endfacet
  facet normal 0.57735 -0.57735 -0.57735
    outer loop
      vertex 5.26335 -5.92705 -1
      vertex 6.42705 -5.76335 0
      vertex 5.76335 -6.42705 0
    endloop
  endfacet
  facet normal 0.739367 0.376725 -0.558046
    outer loop
      vertex 6.85316 4.92705 0
      vertex 5.92705 5.26335 -1
      vertex 6.42705 5.76335 0
    endloop
  endfacet
  facet normal 0.739367 0.376725 -0.558046
    outer loop
      vertex 5.92705 5.26335 -1
      vertex 6.85316 4.92705 0
      vertex 6.35316 4.42705 -1
    endloop
  endfacet
  facet normal 0.987687 0.15644 0
    outer loop
      vertex 7 4 4
      vertex 6.85316 4.92705 0
      vertex 6.85316 4.92705 4
    endloop
  endfacet
  facet normal 0.987687 0.15644 0
    outer loop
      vertex 6.85316 4.92705 0
      vertex 7 4 4
      vertex 7 4 0
    endloop
  endfacet
  facet normal 0 0.894427 -0.447214
    outer loop
      vertex 3.5 6.5 -1
      vertex -4 7 0
      vertex 4 7 0
    endloop
  endfacet
  facet normal 0 0.894427 -0.447214
    outer loop
      vertex -4 7 0
      vertex 3.5 6.5 -1
      vertex -3.5 6.5 -1
    endloop
  endfacet
  facet normal -0.707107 0.707107 0
    outer loop
      vertex -6.42705 5.76335 0
      vertex -5.76335 6.42705 4
      vertex -5.76335 6.42705 0
    endloop
  endfacet
  facet normal -0.707107 0.707107 0
    outer loop
      vertex -5.76335 6.42705 4
      vertex -6.42705 5.76335 0
      vertex -6.42705 5.76335 4
    endloop
  endfacet
  facet normal -0.857318 0.135791 -0.496555
    outer loop
      vertex -6.35316 4.42705 -1
      vertex -7 4 0
      vertex -6.85316 4.92705 0
    endloop
  endfacet
  facet normal -0.857318 0.135791 -0.496555
    outer loop
      vertex -7 4 0
      vertex -6.35316 4.42705 -1
      vertex -6.5 3.5 -1
    endloop
  endfacet
  facet normal -1 0 0
    outer loop
      vertex -7 -4 0
      vertex -7 4 4
      vertex -7 4 0
    endloop
  endfacet
  facet normal -1 -0 0
    outer loop
      vertex -7 4 4
      vertex -7 -4 0
      vertex -7 -4 4
    endloop
  endfacet
  facet normal -0.894427 0 -0.447214
    outer loop
      vertex -6.5 -3.5 -1
      vertex -7 4 0
      vertex -6.5 3.5 -1
    endloop
  endfacet
  facet normal -0.894427 -0 -0.447214
    outer loop
      vertex -7 4 0
      vertex -6.5 -3.5 -1
      vertex -7 -4 0
    endloop
  endfacet
  facet normal 0 0 1
    outer loop
      vertex -4.39277 -2.64277 4
      vertex -1.5 0 4
      vertex -4.01777 2.51777 4
    endloop
  endfacet
  facet normal 0 0 1
    outer loop
      vertex -1.5 0 4
      vertex -4.39277 -2.64277 4
      vertex -1.76777 -1.76777 4
    endloop
  endfacet
  facet normal -0 0 1
    outer loop
      vertex -7 4 4
      vertex -4.01777 2.51777 4
      vertex -4.89277 5.14277 4
    endloop
  endfacet
  facet normal 0 0 1
    outer loop
      vertex -4.01777 2.51777 4
      vertex -7 4 4
      vertex -4.39277 -2.64277 4
    endloop
  endfacet
  facet normal -0 0 1
    outer loop
      vertex -5.76335 6.42705 4
      vertex -4.89277 5.14277 4
      vertex -4.92705 6.85316 4
    endloop
  endfacet
  facet normal -0 0 1
    outer loop
      vertex -6.42705 5.76335 4
      vertex -4.89277 5.14277 4
      vertex -5.76335 6.42705 4
    endloop
  endfacet
  facet normal -0 0 1
    outer loop
      vertex 5.14277 4.89277 4
      vertex 7 4 4
      vertex 6.85316 4.92705 4
    endloop
  endfacet
  facet normal 0 0 1
    outer loop
      vertex 7 4 4
      vertex 6.53647 1.42658 4
      vertex 7 1.5 4
    endloop
  endfacet
  facet normal 0 0 1
    outer loop
      vertex 5.14277 4.89277 4
      vertex 6.85316 4.92705 4
      vertex 6.42705 5.76335 4
    endloop
  endfacet
  facet normal 0 0 1
    outer loop
      vertex 7 4 4
      vertex 5.14277 4.89277 4
      vertex 4.39277 2.64277 4
    endloop
  endfacet
  facet normal 0 0 1
    outer loop
      vertex 7 4 4
      vertex 4.39277 2.64277 4
      vertex 6.53647 1.42658 4
    endloop
  endfacet
  facet normal 0 0 1
    outer loop
      vertex 5.14277 4.89277 4
      vertex 6.42705 5.76335 4
      vertex 5.76335 6.42705 4
    endloop
  endfacet
  facet normal 0 0 1
    outer loop
      vertex 6.53647 1.42658 4
      vertex 4.39277 2.64277 4
      vertex 6.11832 1.21352 4
    endloop
  endfacet
  facet normal 0 0 1
    outer loop
      vertex 6.11832 1.21352 4
      vertex 4.39277 2.64277 4
      vertex 5.78647 0.881678 4
    endloop
  endfacet
  facet normal 0 0 1
    outer loop
      vertex 5.78647 0.881678 4
      vertex 4.39277 2.64277 4
      vertex 5.57341 0.463525 4
    endloop
  endfacet
  facet normal 0 0 1
    outer loop
      vertex 4.92705 6.85316 4
      vertex 5.14277 4.89277 4
      vertex 5.76335 6.42705 4
    endloop
  endfacet
  facet normal 0 0 1
    outer loop
      vertex 4 7 4
      vertex 5.14277 4.89277 4
      vertex 4.92705 6.85316 4
    endloop
  endfacet
  facet normal 0 0 1
    outer loop
      vertex 4 7 4
      vertex 2.51777 4.01777 4
      vertex 5.14277 4.89277 4
    endloop
  endfacet
  facet normal -0 0 1
    outer loop
      vertex 1.42658 -0.463525 4
      vertex 4.01777 -2.51777 4
      vertex 1.5 0 4
    endloop
  endfacet
  facet normal 0 0 1
    outer loop
      vertex 5.5 0 4
      vertex 1.42658 0.463525 4
      vertex 1.5 0 4
    endloop
  endfacet
  facet normal 0 0 1
    outer loop
      vertex 1.76777 1.76777 4
      vertex 1.21352 0.881678 4
      vertex 1.42658 0.463525 4
    endloop
  endfacet
  facet normal 0 0 1
    outer loop
      vertex 0.463525 1.42658 4
      vertex 1.76777 1.76777 4
      vertex 2.51777 4.01777 4
    endloop
  endfacet
  facet normal 0 0 1
    outer loop
      vertex 1.76777 1.76777 4
      vertex 0.881678 1.21352 4
      vertex 1.21352 0.881678 4
    endloop
  endfacet
  facet normal -0 0 1
    outer loop
      vertex -2.64277 4.39277 4
      vertex 2.51777 4.01777 4
      vertex 4 7 4
    endloop
  endfacet
  facet normal 0 0 1
    outer loop
      vertex 1.76777 1.76777 4
      vertex 0.463525 1.42658 4
      vertex 0.881678 1.21352 4
    endloop
  endfacet
  facet normal 0 -0 1
    outer loop
      vertex 0 1.5 4
      vertex 2.51777 4.01777 4
      vertex -2.64277 4.39277 4
    endloop
  endfacet
  facet normal 0 0 1
    outer loop
      vertex 2.51777 4.01777 4
      vertex 0 1.5 4
      vertex 0.463525 1.42658 4
    endloop
  endfacet
  facet normal 0 0 1
    outer loop
      vertex 0 1.5 4
      vertex -2.64277 4.39277 4
      vertex -0.463525 1.42658 4
    endloop
  endfacet
  facet normal -0 -0 1
    outer loop
      vertex -1.76777 1.76777 4
      vertex -0.463525 1.42658 4
      vertex -2.64277 4.39277 4
    endloop
  endfacet
  facet normal 0 0 1
    outer loop
      vertex -4.01777 2.51777 4
      vertex -1.42658 0.463525 4
      vertex -1.76777 1.76777 4
    endloop
  endfacet
  facet normal 0 0 1
    outer loop
      vertex -1.21352 0.881678 4
      vertex -1.76777 1.76777 4
      vertex -1.42658 0.463525 4
    endloop
  endfacet
  facet normal 0 0 1
    outer loop
      vertex -0.881678 1.21352 4
      vertex -1.76777 1.76777 4
      vertex -1.21352 0.881678 4
    endloop
  endfacet
  facet normal 0 0 1
    outer loop
      vertex -0.463525 1.42658 4
      vertex -1.76777 1.76777 4
      vertex -0.881678 1.21352 4
    endloop
  endfacet
  facet normal -0 0 1
    outer loop
      vertex -4 7 4
      vertex -2.64277 4.39277 4
      vertex 4 7 4
    endloop
  endfacet
  facet normal 0 0 1
    outer loop
      vertex -4 7 4
      vertex -4.89277 5.14277 4
      vertex -2.64277 4.39277 4
    endloop
  endfacet
  facet normal 0 -0 1
    outer loop
      vertex -4.89277 5.14277 4
      vertex -4 7 4
      vertex -4.92705 6.85316 4
    endloop
  endfacet
  facet normal 0 0 1
    outer loop
      vertex 6.53647 -1.42658 4
      vertex 7 -4 4
      vertex 7 -1.5 4
    endloop
  endfacet
  facet normal -0 0 1
    outer loop
      vertex 4.01777 -2.51777 4
      vertex 7 -4 4
      vertex 6.53647 -1.42658 4
    endloop
  endfacet
  facet normal 0 -0 1
    outer loop
      vertex 4.89277 -5.14277 4
      vertex 7 -4 4
      vertex 4.01777 -2.51777 4
    endloop
  endfacet
  facet normal 0 0 1
    outer loop
      vertex 4.01777 -2.51777 4
      vertex 6.53647 -1.42658 4
      vertex 6.11832 -1.21352 4
    endloop
  endfacet
  facet normal 0 0 1
    outer loop
      vertex 4.01777 -2.51777 4
      vertex 6.11832 -1.21352 4
      vertex 5.78647 -0.881678 4
    endloop
  endfacet
  facet normal 0 0 1
    outer loop
      vertex 6.85316 -4.92705 4
      vertex 4.89277 -5.14277 4
      vertex 6.42705 -5.76335 4
    endloop
  endfacet
  facet normal 0 0 1
    outer loop
      vertex 4.01777 -2.51777 4
      vertex 5.78647 -0.881678 4
      vertex 5.57341 -0.463525 4
    endloop
  endfacet
  facet normal 0 0 1
    outer loop
      vertex 4.01777 -2.51777 4
      vertex 5.57341 -0.463525 4
      vertex 5.5 0 4
    endloop
  endfacet
  facet normal -0 0 1
    outer loop
      vertex 1.76777 1.76777 4
      vertex 5.57341 0.463525 4
      vertex 4.39277 2.64277 4
    endloop
  endfacet
  facet normal 0 0 1
    outer loop
      vertex 1.42658 0.463525 4
      vertex 5.57341 0.463525 4
      vertex 1.76777 1.76777 4
    endloop
  endfacet
  facet normal 0 0 1
    outer loop
      vertex 5.76335 -6.42705 4
      vertex 4.89277 -5.14277 4
      vertex 4.92705 -6.85316 4
    endloop
  endfacet
  facet normal 0 0 1
    outer loop
      vertex 7 -4 4
      vertex 4.89277 -5.14277 4
      vertex 6.85316 -4.92705 4
    endloop
  endfacet
  facet normal 0 0 1
    outer loop
      vertex 6.42705 -5.76335 4
      vertex 4.89277 -5.14277 4
      vertex 5.76335 -6.42705 4
    endloop
  endfacet
  facet normal 0 0 1
    outer loop
      vertex 5.57341 0.463525 4
      vertex 1.42658 0.463525 4
      vertex 5.5 0 4
    endloop
  endfacet
  facet normal -0 0 1
    outer loop
      vertex 1.5 0 4
      vertex 4.01777 -2.51777 4
      vertex 5.5 0 4
    endloop
  endfacet
  facet normal 0 0 1
    outer loop
      vertex 4.89277 -5.14277 4
      vertex 4 -7 4
      vertex 4.92705 -6.85316 4
    endloop
  endfacet
  facet normal 0 0 1
    outer loop
      vertex 2.64277 -4.39277 4
      vertex 4 -7 4
      vertex 4.89277 -5.14277 4
    endloop
  endfacet
  facet normal 0 0 1
    outer loop
      vertex 4.01777 -2.51777 4
      vertex 1.42658 -0.463525 4
      vertex 1.76777 -1.76777 4
    endloop
  endfacet
  facet normal -0 0 1
    outer loop
      vertex 1.21352 -0.881678 4
      vertex 1.76777 -1.76777 4
      vertex 1.42658 -0.463525 4
    endloop
  endfacet
  facet normal -0 0 1
    outer loop
      vertex 0.881678 -1.21352 4
      vertex 1.76777 -1.76777 4
      vertex 1.21352 -0.881678 4
    endloop
  endfacet
  facet normal -0 0 1
    outer loop
      vertex 0.463525 -1.42658 4
      vertex 1.76777 -1.76777 4
      vertex 0.881678 -1.21352 4
    endloop
  endfacet
  facet normal 0 0 1
    outer loop
      vertex 1.76777 -1.76777 4
      vertex 0.463525 -1.42658 4
      vertex 2.64277 -4.39277 4
    endloop
  endfacet
  facet normal -0 0 1
    outer loop
      vertex 0 -1.5 4
      vertex 2.64277 -4.39277 4
      vertex 0.463525 -1.42658 4
    endloop
  endfacet
  facet normal 0 0 1
    outer loop
      vertex 2.64277 -4.39277 4
      vertex 0 -1.5 4
      vertex -2.51777 -4.01777 4
    endloop
  endfacet
  facet normal 0 0 1
    outer loop
      vertex -2.51777 -4.01777 4
      vertex 0 -1.5 4
      vertex -0.463525 -1.42658 4
    endloop
  endfacet
  facet normal 0 0 1
    outer loop
      vertex -1.76777 -1.76777 4
      vertex -0.463525 -1.42658 4
      vertex -0.881678 -1.21352 4
    endloop
  endfacet
  facet normal 0 0 1
    outer loop
      vertex -1.76777 -1.76777 4
      vertex -0.881678 -1.21352 4
      vertex -1.21352 -0.881678 4
    endloop
  endfacet
  facet normal 0 0 1
    outer loop
      vertex -1.42658 0.463525 4
      vertex -4.01777 2.51777 4
      vertex -1.5 0 4
    endloop
  endfacet
  facet normal 0 0 1
    outer loop
      vertex -1.76777 -1.76777 4
      vertex -1.42658 -0.463525 4
      vertex -1.5 0 4
    endloop
  endfacet
  facet normal 0 0 1
    outer loop
      vertex -1.76777 -1.76777 4
      vertex -1.21352 -0.881678 4
      vertex -1.42658 -0.463525 4
    endloop
  endfacet
  facet normal 0 0 1
    outer loop
      vertex -0.463525 -1.42658 4
      vertex -1.76777 -1.76777 4
      vertex -2.51777 -4.01777 4
    endloop
  endfacet
  facet normal 0 0 1
    outer loop
      vertex -4 -7 4
      vertex 2.64277 -4.39277 4
      vertex -2.51777 -4.01777 4
    endloop
  endfacet
  facet normal 0 0 1
    outer loop
      vertex 2.64277 -4.39277 4
      vertex -4 -7 4
      vertex 4 -7 4
    endloop
  endfacet
  facet normal -0 0 1
    outer loop
      vertex -5.14277 -4.89277 4
      vertex -4 -7 4
      vertex -2.51777 -4.01777 4
    endloop
  endfacet
  facet normal 0 0 1
    outer loop
      vertex -4 -7 4
      vertex -5.14277 -4.89277 4
      vertex -4.92705 -6.85316 4
    endloop
  endfacet
  facet normal 0 0 1
    outer loop
      vertex -5.14277 -4.89277 4
      vertex -5.76335 -6.42705 4
      vertex -4.92705 -6.85316 4
    endloop
  endfacet
  facet normal 0 0 1
    outer loop
      vertex -7 -4 4
      vertex -4.39277 -2.64277 4
      vertex -7 4 4
    endloop
  endfacet
  facet normal 0 0 1
    outer loop
      vertex -6.85316 4.92705 4
      vertex -4.89277 5.14277 4
      vertex -6.42705 5.76335 4
    endloop
  endfacet
  facet normal 0 0 1
    outer loop
      vertex -4.39277 -2.64277 4
      vertex -7 -4 4
      vertex -5.14277 -4.89277 4
    endloop
  endfacet
  facet normal 0 0 1
    outer loop
      vertex -4.89277 5.14277 4
      vertex -6.85316 4.92705 4
      vertex -7 4 4
    endloop
  endfacet
  facet normal 0 -0 1
    outer loop
      vertex -6.85316 -4.92705 4
      vertex -5.14277 -4.89277 4
      vertex -7 -4 4
    endloop
  endfacet
  facet normal 0 0 1
    outer loop
      vertex -5.14277 -4.89277 4
      vertex -6.42705 -5.76335 4
      vertex -5.76335 -6.42705 4
    endloop
  endfacet
  facet normal 0 0 1
    outer loop
      vertex -5.14277 -4.89277 4
      vertex -6.85316 -4.92705 4
      vertex -6.42705 -5.76335 4
    endloop
  endfacet
  facet normal 0.45399 0.891007 -0
    outer loop
      vertex 5.76335 6.42705 0
      vertex 4.92705 6.85316 4
      vertex 5.76335 6.42705 4
    endloop
  endfacet
  facet normal 0.45399 0.891007 0
    outer loop
      vertex 4.92705 6.85316 4
      vertex 5.76335 6.42705 0
      vertex 4.92705 6.85316 0
    endloop
  endfacet
  facet normal 0.707107 0.707107 0
    outer loop
      vertex 6.42705 5.76335 4
      vertex 5.76335 6.42705 0
      vertex 5.76335 6.42705 4
    endloop
  endfacet
  facet normal 0.707107 0.707107 0
    outer loop
      vertex 5.76335 6.42705 0
      vertex 6.42705 5.76335 4
      vertex 6.42705 5.76335 0
    endloop
  endfacet
  facet normal 0.15644 0.987687 -0
    outer loop
      vertex 4.92705 6.85316 0
      vertex 4 7 4
      vertex 4.92705 6.85316 4
    endloop
  endfacet
  facet normal 0.15644 0.987687 0
    outer loop
      vertex 4 7 4
      vertex 4.92705 6.85316 0
      vertex 4 7 0
    endloop
  endfacet
  facet normal -0.15644 -0.987687 0
    outer loop
      vertex -4.92705 -6.85316 0
      vertex -4 -7 4
      vertex -4.92705 -6.85316 4
    endloop
  endfacet
  facet normal -0.15644 -0.987687 -0
    outer loop
      vertex -4 -7 4
      vertex -4.92705 -6.85316 0
      vertex -4 -7 0
    endloop
  endfacet
  facet normal -0.45399 -0.891007 0
    outer loop
      vertex -5.76335 -6.42705 0
      vertex -4.92705 -6.85316 4
      vertex -5.76335 -6.42705 4
    endloop
  endfacet
  facet normal -0.45399 -0.891007 -0
    outer loop
      vertex -4.92705 -6.85316 4
      vertex -5.76335 -6.42705 0
      vertex -4.92705 -6.85316 0
    endloop
  endfacet
  facet normal -0.376725 -0.739367 -0.558046
    outer loop
      vertex -5.26335 -5.92705 -1
      vertex -4.92705 -6.85316 0
      vertex -5.76335 -6.42705 0
    endloop
  endfacet
  facet normal -0.376725 -0.739367 -0.558046
    outer loop
      vertex -4.92705 -6.85316 0
      vertex -5.26335 -5.92705 -1
      vertex -4.42705 -6.35316 -1
    endloop
  endfacet
  facet normal -0.15644 0.987687 0
    outer loop
      vertex -4 7 0
      vertex -4.92705 6.85316 4
      vertex -4 7 4
    endloop
  endfacet
  facet normal -0.15644 0.987687 0
    outer loop
      vertex -4.92705 6.85316 4
      vertex -4 7 0
      vertex -4.92705 6.85316 0
    endloop
  endfacet
  facet normal -0.891007 0.45399 0
    outer loop
      vertex -6.85316 4.92705 0
      vertex -6.42705 5.76335 4
      vertex -6.42705 5.76335 0
    endloop
  endfacet
  facet normal -0.891007 0.45399 0
    outer loop
      vertex -6.42705 5.76335 4
      vertex -6.85316 4.92705 0
      vertex -6.85316 4.92705 4
    endloop
  endfacet
  facet normal -0.857318 -0.135791 -0.496555
    outer loop
      vertex -6.35316 -4.42705 -1
      vertex -7 -4 0
      vertex -6.5 -3.5 -1
    endloop
  endfacet
  facet normal -0.857318 -0.135791 -0.496555
    outer loop
      vertex -7 -4 0
      vertex -6.35316 -4.42705 -1
      vertex -6.85316 -4.92705 0
    endloop
  endfacet
  facet normal -0.707107 -0.707107 0
    outer loop
      vertex -5.76335 -6.42705 0
      vertex -6.42705 -5.76335 4
      vertex -6.42705 -5.76335 0
    endloop
  endfacet
  facet normal -0.707107 -0.707107 0
    outer loop
      vertex -6.42705 -5.76335 4
      vertex -5.76335 -6.42705 0
      vertex -5.76335 -6.42705 4
    endloop
  endfacet
  facet normal -0.376725 0.739367 -0.558046
    outer loop
      vertex -5.26335 5.92705 -1
      vertex -4.92705 6.85316 0
      vertex -4.42705 6.35316 -1
    endloop
  endfacet
  facet normal -0.376725 0.739367 -0.558046
    outer loop
      vertex -4.92705 6.85316 0
      vertex -5.26335 5.92705 -1
      vertex -5.76335 6.42705 0
    endloop
  endfacet
  facet normal -0.45399 0.891007 0
    outer loop
      vertex -4.92705 6.85316 0
      vertex -5.76335 6.42705 4
      vertex -4.92705 6.85316 4
    endloop
  endfacet
  facet normal -0.45399 0.891007 0
    outer loop
      vertex -5.76335 6.42705 4
      vertex -4.92705 6.85316 0
      vertex -5.76335 6.42705 0
    endloop
  endfacet
  facet normal -0.739367 0.376725 -0.558046
    outer loop
      vertex -5.92705 5.26335 -1
      vertex -6.85316 4.92705 0
      vertex -6.42705 5.76335 0
    endloop
  endfacet
  facet normal -0.739367 0.376725 -0.558046
    outer loop
      vertex -6.85316 4.92705 0
      vertex -5.92705 5.26335 -1
      vertex -6.35316 4.42705 -1
    endloop
  endfacet
  facet normal -0.987687 0.15644 0
    outer loop
      vertex -7 4 0
      vertex -6.85316 4.92705 4
      vertex -6.85316 4.92705 0
    endloop
  endfacet
  facet normal -0.987687 0.15644 0
    outer loop
      vertex -6.85316 4.92705 4
      vertex -7 4 0
      vertex -7 4 4
    endloop
  endfacet
  facet normal 0.135791 0.857318 -0.496555
    outer loop
      vertex 4.42705 6.35316 -1
      vertex 4 7 0
      vertex 4.92705 6.85316 0
    endloop
  endfacet
  facet normal 0.135791 0.857318 -0.496555
    outer loop
      vertex 4 7 0
      vertex 4.42705 6.35316 -1
      vertex 3.5 6.5 -1
    endloop
  endfacet
  facet normal 0.376725 0.739367 -0.558046
    outer loop
      vertex 5.26335 5.92705 -1
      vertex 4.92705 6.85316 0
      vertex 5.76335 6.42705 0
    endloop
  endfacet
  facet normal 0.376725 0.739367 -0.558046
    outer loop
      vertex 4.92705 6.85316 0
      vertex 5.26335 5.92705 -1
      vertex 4.42705 6.35316 -1
    endloop
  endfacet
  facet normal -0.891007 -0.45399 0
    outer loop
      vertex -6.42705 -5.76335 0
      vertex -6.85316 -4.92705 4
      vertex -6.85316 -4.92705 0
    endloop
  endfacet
  facet normal -0.891007 -0.45399 0
    outer loop
      vertex -6.85316 -4.92705 4
      vertex -6.42705 -5.76335 0
      vertex -6.42705 -5.76335 4
    endloop
  endfacet
  facet normal -0.987687 -0.15644 0
    outer loop
      vertex -6.85316 -4.92705 0
      vertex -7 -4 4
      vertex -7 -4 0
    endloop
  endfacet
  facet normal -0.987687 -0.15644 0
    outer loop
      vertex -7 -4 4
      vertex -6.85316 -4.92705 0
      vertex -6.85316 -4.92705 4
    endloop
  endfacet
  facet normal 0.987688 0.156434 0
    outer loop
      vertex 5.57341 -0.463525 4
      vertex 5.5 0 -1
      vertex 5.5 0 4
    endloop
  endfacet
  facet normal 0.987688 0.156434 0
    outer loop
      vertex 5.5 0 -1
      vertex 5.57341 -0.463525 4
      vertex 5.57341 -0.463525 -1
    endloop
  endfacet
  facet normal 0.156435 -0.987688 0
    outer loop
      vertex 6.53647 1.42658 4
      vertex 7 1.5 0
      vertex 7 1.5 4
    endloop
  endfacet
  facet normal 0.156435 -0.987688 0
    outer loop
      vertex 7 1.5 0
      vertex 6.53647 1.42658 4
      vertex 6.53647 1.42658 -0.927052
    endloop
  endfacet
  facet normal 0.707107 -0.707107 0
    outer loop
      vertex 5.78647 0.881678 4
      vertex 6.11832 1.21352 -1
      vertex 6.11832 1.21352 4
    endloop
  endfacet
  facet normal 0.707107 -0.707107 0
    outer loop
      vertex 6.11832 1.21352 -1
      vertex 5.78647 0.881678 4
      vertex 5.78647 0.881678 -1
    endloop
  endfacet
  facet normal 0.891007 -0.45399 0
    outer loop
      vertex 5.57341 0.463525 4
      vertex 5.78647 0.881678 -1
      vertex 5.78647 0.881678 4
    endloop
  endfacet
  facet normal 0.891007 -0.45399 0
    outer loop
      vertex 5.78647 0.881678 -1
      vertex 5.57341 0.463525 4
      vertex 5.57341 0.463525 -1
    endloop
  endfacet
  facet normal 0.45399 -0.891007 0
    outer loop
      vertex 6.11832 1.21352 4
      vertex 6.53647 1.42658 -0.927052
      vertex 6.53647 1.42658 4
    endloop
  endfacet
  facet normal 0.45399 -0.891007 0
    outer loop
      vertex 6.11832 1.21352 -1
      vertex 6.53647 1.42658 -0.927052
      vertex 6.11832 1.21352 4
    endloop
  endfacet
  facet normal 0.45399 -0.891007 -6.85211e-007
    outer loop
      vertex 6.53647 1.42658 -0.927052
      vertex 6.11832 1.21352 -1
      vertex 6.5 1.408 -1
    endloop
  endfacet
  facet normal 0.987688 -0.156434 0
    outer loop
      vertex 5.5 0 4
      vertex 5.57341 0.463525 -1
      vertex 5.57341 0.463525 4
    endloop
  endfacet
  facet normal 0.987688 -0.156434 0
    outer loop
      vertex 5.57341 0.463525 -1
      vertex 5.5 0 4
      vertex 5.5 0 -1
    endloop
  endfacet
  facet normal 0.707107 0.707107 0
    outer loop
      vertex 6.11832 -1.21352 4
      vertex 5.78647 -0.881678 -1
      vertex 5.78647 -0.881678 4
    endloop
  endfacet
  facet normal 0.707107 0.707107 0
    outer loop
      vertex 5.78647 -0.881678 -1
      vertex 6.11832 -1.21352 4
      vertex 6.11832 -1.21352 -1
    endloop
  endfacet
  facet normal 0.891007 0.45399 0
    outer loop
      vertex 5.78647 -0.881678 4
      vertex 5.57341 -0.463525 -1
      vertex 5.57341 -0.463525 4
    endloop
  endfacet
  facet normal 0.891007 0.45399 0
    outer loop
      vertex 5.57341 -0.463525 -1
      vertex 5.78647 -0.881678 4
      vertex 5.78647 -0.881678 -1
    endloop
  endfacet
  facet normal 0.156435 0.987688 -0
    outer loop
      vertex 7 -1.5 0
      vertex 6.53647 -1.42658 4
      vertex 7 -1.5 4
    endloop
  endfacet
  facet normal 0.156435 0.987688 0
    outer loop
      vertex 6.53647 -1.42658 4
      vertex 7 -1.5 0
      vertex 6.53647 -1.42658 -0.927052
    endloop
  endfacet
  facet normal 0.45399 0.891007 -0
    outer loop
      vertex 6.53647 -1.42658 -0.927052
      vertex 6.11832 -1.21352 4
      vertex 6.53647 -1.42658 4
    endloop
  endfacet
  facet normal 0.45399 0.891007 -6.85211e-007
    outer loop
      vertex 6.11832 -1.21352 -1
      vertex 6.53647 -1.42658 -0.927052
      vertex 6.5 -1.408 -1
    endloop
  endfacet
  facet normal 0.45399 0.891007 0
    outer loop
      vertex 6.53647 -1.42658 -0.927052
      vertex 6.11832 -1.21352 -1
      vertex 6.11832 -1.21352 4
    endloop
  endfacet
  facet normal -0.987688 -0.156436 0
    outer loop
      vertex 1.5 0 -1
      vertex 1.42658 0.463525 4
      vertex 1.42658 0.463525 -1
    endloop
  endfacet
  facet normal -0.987688 -0.156436 0
    outer loop
      vertex 1.42658 0.463525 4
      vertex 1.5 0 -1
      vertex 1.5 0 4
    endloop
  endfacet
  facet normal 0.987688 -0.156436 0
    outer loop
      vertex -1.5 0 4
      vertex -1.42658 0.463525 -1
      vertex -1.42658 0.463525 4
    endloop
  endfacet
  facet normal 0.987688 -0.156436 0
    outer loop
      vertex -1.42658 0.463525 -1
      vertex -1.5 0 4
      vertex -1.5 0 -1
    endloop
  endfacet
  facet normal -0.156436 -0.987688 0
    outer loop
      vertex 0 1.5 -1
      vertex 0.463525 1.42658 4
      vertex 0 1.5 4
    endloop
  endfacet
  facet normal -0.156436 -0.987688 -0
    outer loop
      vertex 0.463525 1.42658 4
      vertex 0 1.5 -1
      vertex 0.463525 1.42658 -1
    endloop
  endfacet
  facet normal 0.156436 0.987688 -0
    outer loop
      vertex 0 -1.5 -1
      vertex -0.463525 -1.42658 4
      vertex 0 -1.5 4
    endloop
  endfacet
  facet normal 0.156436 0.987688 0
    outer loop
      vertex -0.463525 -1.42658 4
      vertex 0 -1.5 -1
      vertex -0.463525 -1.42658 -1
    endloop
  endfacet
  facet normal -0.707107 -0.707107 0
    outer loop
      vertex 1.21352 0.881678 -1
      vertex 0.881678 1.21352 4
      vertex 0.881678 1.21352 -1
    endloop
  endfacet
  facet normal -0.707107 -0.707107 0
    outer loop
      vertex 0.881678 1.21352 4
      vertex 1.21352 0.881678 -1
      vertex 1.21352 0.881678 4
    endloop
  endfacet
  facet normal -0.891007 -0.45399 0
    outer loop
      vertex 1.42658 0.463525 -1
      vertex 1.21352 0.881678 4
      vertex 1.21352 0.881678 -1
    endloop
  endfacet
  facet normal -0.891007 -0.45399 0
    outer loop
      vertex 1.21352 0.881678 4
      vertex 1.42658 0.463525 -1
      vertex 1.42658 0.463525 4
    endloop
  endfacet
  facet normal -0.45399 -0.891007 0
    outer loop
      vertex 0.463525 1.42658 -1
      vertex 0.881678 1.21352 4
      vertex 0.463525 1.42658 4
    endloop
  endfacet
  facet normal -0.45399 -0.891007 -0
    outer loop
      vertex 0.881678 1.21352 4
      vertex 0.463525 1.42658 -1
      vertex 0.881678 1.21352 -1
    endloop
  endfacet
  facet normal 0.45399 -0.891007 0
    outer loop
      vertex -0.881678 1.21352 -1
      vertex -0.463525 1.42658 4
      vertex -0.881678 1.21352 4
    endloop
  endfacet
  facet normal 0.45399 -0.891007 0
    outer loop
      vertex -0.463525 1.42658 4
      vertex -0.881678 1.21352 -1
      vertex -0.463525 1.42658 -1
    endloop
  endfacet
  facet normal 0.707107 -0.707107 0
    outer loop
      vertex -1.21352 0.881678 4
      vertex -0.881678 1.21352 -1
      vertex -0.881678 1.21352 4
    endloop
  endfacet
  facet normal 0.707107 -0.707107 0
    outer loop
      vertex -0.881678 1.21352 -1
      vertex -1.21352 0.881678 4
      vertex -1.21352 0.881678 -1
    endloop
  endfacet
  facet normal 0.156436 -0.987688 0
    outer loop
      vertex -0.463525 1.42658 -1
      vertex 0 1.5 4
      vertex -0.463525 1.42658 4
    endloop
  endfacet
  facet normal 0.156436 -0.987688 0
    outer loop
      vertex 0 1.5 4
      vertex -0.463525 1.42658 -1
      vertex 0 1.5 -1
    endloop
  endfacet
  facet normal -0.891007 0.45399 0
    outer loop
      vertex 1.21352 -0.881678 -1
      vertex 1.42658 -0.463525 4
      vertex 1.42658 -0.463525 -1
    endloop
  endfacet
  facet normal -0.891007 0.45399 0
    outer loop
      vertex 1.42658 -0.463525 4
      vertex 1.21352 -0.881678 -1
      vertex 1.21352 -0.881678 4
    endloop
  endfacet
  facet normal 0.707107 0.707107 0
    outer loop
      vertex -0.881678 -1.21352 4
      vertex -1.21352 -0.881678 -1
      vertex -1.21352 -0.881678 4
    endloop
  endfacet
  facet normal 0.707107 0.707107 0
    outer loop
      vertex -1.21352 -0.881678 -1
      vertex -0.881678 -1.21352 4
      vertex -0.881678 -1.21352 -1
    endloop
  endfacet
  facet normal 0.987688 0.156436 0
    outer loop
      vertex -1.42658 -0.463525 4
      vertex -1.5 0 -1
      vertex -1.5 0 4
    endloop
  endfacet
  facet normal 0.987688 0.156436 0
    outer loop
      vertex -1.5 0 -1
      vertex -1.42658 -0.463525 4
      vertex -1.42658 -0.463525 -1
    endloop
  endfacet
  facet normal 0.891007 -0.45399 0
    outer loop
      vertex -1.42658 0.463525 4
      vertex -1.21352 0.881678 -1
      vertex -1.21352 0.881678 4
    endloop
  endfacet
  facet normal 0.891007 -0.45399 0
    outer loop
      vertex -1.21352 0.881678 -1
      vertex -1.42658 0.463525 4
      vertex -1.42658 0.463525 -1
    endloop
  endfacet
  facet normal -0.987688 0.156436 0
    outer loop
      vertex 1.42658 -0.463525 -1
      vertex 1.5 0 4
      vertex 1.5 0 -1
    endloop
  endfacet
  facet normal -0.987688 0.156436 0
    outer loop
      vertex 1.5 0 4
      vertex 1.42658 -0.463525 -1
      vertex 1.42658 -0.463525 4
    endloop
  endfacet
  facet normal -0.156436 0.987688 0
    outer loop
      vertex 0.463525 -1.42658 -1
      vertex 0 -1.5 4
      vertex 0.463525 -1.42658 4
    endloop
  endfacet
  facet normal -0.156436 0.987688 0
    outer loop
      vertex 0 -1.5 4
      vertex 0.463525 -1.42658 -1
      vertex 0 -1.5 -1
    endloop
  endfacet
  facet normal -0.707107 0.707107 0
    outer loop
      vertex 0.881678 -1.21352 -1
      vertex 1.21352 -0.881678 4
      vertex 1.21352 -0.881678 -1
    endloop
  endfacet
  facet normal -0.707107 0.707107 0
    outer loop
      vertex 1.21352 -0.881678 4
      vertex 0.881678 -1.21352 -1
      vertex 0.881678 -1.21352 4
    endloop
  endfacet
  facet normal 0.45399 0.891007 -0
    outer loop
      vertex -0.463525 -1.42658 -1
      vertex -0.881678 -1.21352 4
      vertex -0.463525 -1.42658 4
    endloop
  endfacet
  facet normal 0.45399 0.891007 0
    outer loop
      vertex -0.881678 -1.21352 4
      vertex -0.463525 -1.42658 -1
      vertex -0.881678 -1.21352 -1
    endloop
  endfacet
  facet normal 0.891007 0.45399 0
    outer loop
      vertex -1.21352 -0.881678 4
      vertex -1.42658 -0.463525 -1
      vertex -1.42658 -0.463525 4
    endloop
  endfacet
  facet normal 0.891007 0.45399 0
    outer loop
      vertex -1.42658 -0.463525 -1
      vertex -1.21352 -0.881678 4
      vertex -1.21352 -0.881678 -1
    endloop
  endfacet
  facet normal -0.45399 0.891007 0
    outer loop
      vertex 0.881678 -1.21352 -1
      vertex 0.463525 -1.42658 4
      vertex 0.881678 -1.21352 4
    endloop
  endfacet
  facet normal -0.45399 0.891007 0
    outer loop
      vertex 0.463525 -1.42658 4
      vertex 0.881678 -1.21352 -1
      vertex 0.463525 -1.42658 -1
    endloop
  endfacet
endsolid OpenSCAD_Model
